<?xml version="1.0" standalone="no"?>
<!DOCTYPE svg PUBLIC "-//W3C//DTD SVG 1.1//EN" "http://www.w3.org/Graphics/SVG/1.1/DTD/svg11.dtd" >
<svg xmlns="http://www.w3.org/2000/svg" xmlns:xlink="http://www.w3.org/1999/xlink" version="1.1">
<metadata>
Created by FontForge 20200427 at Fri May 27 03:10:09 2016
 By www
2010 published by FontShop International GmbH
</metadata>
<defs>
<font id="TypefaceSixSevenOTW03-Seven" horiz-adv-x="1" >
  <font-face 
    font-family="TypefaceSixSevenOTW03-Seven"
    font-weight="400"
    font-stretch="normal"
    units-per-em="1000"
    panose-1="2 11 5 4 2 1 1 2 1 4"
    ascent="800"
    descent="-200"
    x-height="667"
    cap-height="667"
    bbox="-553 -263 1172 909"
    underline-thickness="50"
    underline-position="-125"
    unicode-range="U+000D-FEFF"
  />
<missing-glyph horiz-adv-x="739" 
d="M68 0v667h603v-667h-603zM135 67h469v533h-469v-533z" />
    <glyph glyph-name=".notdef" horiz-adv-x="739" 
d="M68 0v667h603v-667h-603zM135 67h469v533h-469v-533z" />
    <glyph glyph-name="glyph1" horiz-adv-x="0" 
 />
    <glyph glyph-name="glyph1" horiz-adv-x="0" 
 />
    <glyph glyph-name="uni000D" unicode="&#xd;" horiz-adv-x="200" 
 />
    <glyph glyph-name="space" unicode=" " horiz-adv-x="200" 
 />
    <glyph glyph-name="exclam" unicode="!" horiz-adv-x="205" 
d="M73 204l-17 463h96l-19 -463h-60zM44 44q0 25 17 42t42 17q24 0 41 -17t17 -41t-17 -41t-41 -17t-41.5 16.5t-17.5 40.5z" />
    <glyph glyph-name="quotedbl" unicode="&#x22;" horiz-adv-x="322" 
d="M121 464h-71v203h71v-203zM272 464h-71v203h71v-203z" />
    <glyph glyph-name="numbersign" unicode="#" horiz-adv-x="600" 
d="M67 245h94l17 118h-85v66h94l25 179h69l-26 -179h125l25 179h69l-26 -179h85v-66h-94l-17 -118h85v-66h-94l-25 -179h-69l26 179h-125l-25 -179h-69l26 179h-85v66zM354 245l17 118h-125l-17 -118h125z" />
    <glyph glyph-name="dollar" unicode="$" horiz-adv-x="576" 
d="M251 -100v91q-33 3 -75 19.5t-80.5 55.5t-57.5 90l66 23q8 -24 27 -50t52 -45.5t68 -25.5v252l-217 83q-5 12 -5 34q0 29 11.5 66t42.5 80t77 69t91 30v71h61v-70q75 -7 129.5 -49t85.5 -114l-62 -23q-10 29 -37 58t-58.5 43.5t-57.5 17.5v-245l227 -86q4 -16 4 -29
q0 -57 -30 -116.5t-86 -96.5t-115 -42v-91h-61zM312 287v-230q24 3 49.5 13.5t49 33.5t39 57t21.5 65zM251 385v220q-43 -7 -78.5 -33.5t-52.5 -61t-20 -68.5z" />
    <glyph glyph-name="percent" unicode="%" horiz-adv-x="544" 
d="M299 551q0 -41 -22 -75t-52.5 -47t-55.5 -13t-55.5 13t-52.5 45.5t-22 71.5q0 53 38 90.5t92 37.5q25 0 55 -12.5t52.5 -43.5t22.5 -67zM504 126q0 -41 -22 -75t-52.5 -47t-55.5 -13t-55.5 13t-52.5 45.5t-22 71.5q0 53 38 90.5t92 37.5q25 0 55 -12.5t52.5 -43.5
t22.5 -67zM60 0l352 667h71l-352 -667h-71zM451 119q0 32 -23 55t-54 23t-53.5 -22.5t-22.5 -53.5t22.5 -53.5t53.5 -22.5q30 0 53.5 22.5t23.5 51.5zM246 544q0 32 -23 55t-54 23t-53.5 -22.5t-22.5 -53.5t22.5 -53.5t53.5 -22.5q30 0 53.5 22.5t23.5 51.5z" />
    <glyph glyph-name="ampersand" unicode="&#x26;" horiz-adv-x="645" 
d="M458 612l-53 -43q-18 21 -50.5 34.5t-72.5 13.5q-26 0 -56.5 -10.5t-52 -38t-21.5 -62.5q0 -52 34.5 -82t87.5 -30h35v-69h-65q-26 0 -58.5 -12t-58 -43.5t-25.5 -74.5q0 -36 24 -70.5t68 -53.5t91 -19q87 0 139 50t52 128q0 18 -6.5 48.5t-16.5 46.5h-47v69h213v-69h-91
q6 -11 13 -41t7 -58q0 -51 -17 -95t-50.5 -77t-83.5 -51.5t-112 -18.5q-53 0 -100.5 15t-82.5 42t-54.5 64.5t-19.5 80.5q0 70 35.5 117t94.5 65q-83 40 -83 139q0 28 10.5 58.5t36 56.5t66 44t94.5 18q107 0 176 -72z" />
    <glyph glyph-name="quotesingle" unicode="'" horiz-adv-x="211" 
d="M141 464h-71v203h71v-203z" />
    <glyph glyph-name="parenleft" unicode="(" horiz-adv-x="298" 
d="M215 -100q-70 83 -111.5 191.5t-41.5 226.5q0 115 39.5 223.5t107.5 194.5l58 -46q-55 -62 -92 -171.5t-37 -200.5q0 -93 38.5 -199t97.5 -168z" />
    <glyph glyph-name="parenright" unicode=")" horiz-adv-x="298" 
d="M235 320q0 -118 -41.5 -226.5t-111.5 -191.5l-59 51q59 62 97.5 168t38.5 199q0 91 -37 200.5t-92 171.5l58 46q68 -86 107.5 -194.5t39.5 -223.5z" />
    <glyph glyph-name="asterisk" unicode="*" horiz-adv-x="336" 
d="M139 683h58l-1 -82l78 29l19 -51l-80 -28l51 -65l-48 -31l-48 69l-48 -69l-48 31l51 65l-80 28l19 51l78 -29z" />
    <glyph glyph-name="plus" unicode="+" horiz-adv-x="574" 
d="M52 291v69h199v201h73v-201h199v-69h-199v-201h-73v201h-199z" />
    <glyph glyph-name="comma" unicode="," horiz-adv-x="183" 
d="M129 -1l-71 -71v205h71v-134z" />
    <glyph glyph-name="hyphen" unicode="-" horiz-adv-x="357" 
d="M37 361h282v-70h-282v70z" />
    <glyph glyph-name="period" unicode="." horiz-adv-x="183" 
d="M127 0h-71v133h71v-133z" />
    <glyph glyph-name="slash" unicode="/" horiz-adv-x="338" 
d="M26 -16l207 683h71l-207 -683h-71z" />
    <glyph glyph-name="zero" unicode="0" horiz-adv-x="553" 
d="M504 212q0 -45 -17.5 -87t-49 -73.5t-73.5 -49.5t-88 -18t-88 18t-73.5 49.5t-49 73.5t-17.5 87v243q0 45 17.5 87t49 73.5t73.5 49.5t88 18q34 0 67 -10t60.5 -29t52 -49t36.5 -68t12 -72v-243zM434 211v245q0 23 -8 49.5t-30.5 54t-55 41.5t-64.5 14t-57.5 -11
t-46 -28.5t-37.5 -49t-17 -70.5v-245q0 -23 8 -49.5t30.5 -54t55 -41.5t64.5 -14t57.5 11t46 28.5t37.5 49t17 70.5z" />
    <glyph glyph-name="one" unicode="1" horiz-adv-x="262" 
d="M117 0v597h-93v70h163v-667h-70z" />
    <glyph glyph-name="two" unicode="2" horiz-adv-x="523" 
d="M12 0v59l273 228q79 65 102.5 105t23.5 73q0 28 -11 55t-32.5 48.5t-53 34t-70.5 12.5q-40 0 -85 -19t-99 -75l-46 56q49 46 110 76t127 30q44 0 86 -14.5t75 -42.5t52.5 -68t19.5 -87t-23 -90.5t-56.5 -77t-64.5 -59.5l-210 -174h373v-70h-491z" />
    <glyph glyph-name="three" unicode="3" horiz-adv-x="516" 
d="M-2 93l54 55q45 -51 94 -73.5t106 -22.5q50 0 90.5 24t62.5 62t22 88q0 65 -46 106.5t-114 41.5q-53 0 -93 -34l-48 43l214 214h-309v70h424v-51l-178 -178q48 1 90 -13t72.5 -41.5t47 -68t16.5 -89.5q0 -51 -20 -95.5t-54.5 -77.5t-80.5 -51t-96 -18q-71 0 -130 21.5
t-124 87.5z" />
    <glyph glyph-name="four" unicode="4" horiz-adv-x="532" 
d="M357 0v165h-347v55l349 452h68v-440h91v-67h-91v-165h-70zM357 232v333l-257 -333h257z" />
    <glyph glyph-name="five" unicode="5" horiz-adv-x="542" 
d="M146 429q1 0 38.5 3t66.5 4.5t45 1.5q35 0 73 -10t76 -39t57.5 -74t19.5 -93q0 -51 -18 -95t-51 -76t-80 -49.5t-102 -17.5q-70 0 -129 27t-107 96l66 42q57 -95 170 -95q78 0 126.5 45.5t48.5 122.5q0 40 -21 73.5t-59 55t-80 21.5q-39 0 -83.5 -3t-82 -6.5t-44.5 -3.5
v308h398v-67h-328v-171z" />
    <glyph glyph-name="six" unicode="6" horiz-adv-x="547" 
d="M187 437q19 10 45 17t48 7q50 0 94 -18t77 -50.5t51 -76.5t18 -93q0 -44 -18.5 -87.5t-52.5 -77.5t-79.5 -54t-96.5 -20q-46 0 -91 18t-80 51t-55 77.5t-20 93.5q0 39 13.5 83t57.5 119q38 65 97 156t79 114l56 -34q-13 -17 -72.5 -110.5t-70.5 -114.5zM98 225
q0 -26 9 -55t31 -55t56.5 -44.5t78.5 -18.5q43 0 85.5 22.5t66 63.5t23.5 84q0 26 -9.5 54.5t-31 54.5t-56.5 44.5t-78 18.5q-34 0 -74 -17t-70.5 -59.5t-30.5 -92.5z" />
    <glyph glyph-name="seven" unicode="7" horiz-adv-x="512" 
d="M161 -7l253 607h-329v-130h-72v197h504l-274 -674h-82z" />
    <glyph glyph-name="eight" unicode="8" horiz-adv-x="528" 
d="M385 364q21 -5 50.5 -23.5t52 -58t22.5 -93.5q0 -33 -12 -68t-45 -69t-84.5 -51t-105.5 -17q-55 0 -101 14.5t-78.5 41.5t-50 65.5t-17.5 83.5q0 47 16.5 81.5t45.5 58.5t62 34q-26 10 -48 33.5t-31 51.5t-9 52q0 82 57 132.5t154 50.5q100 0 155.5 -51t55.5 -132
q0 -25 -9.5 -53.5t-32 -50.5t-47.5 -32zM263 330q-78 0 -126 -39t-48 -102q0 -62 49.5 -101.5t124.5 -39.5t124.5 39.5t49.5 101.5q0 63 -48 102t-126 39zM260 619q-32 0 -64 -10.5t-52 -38.5t-20 -63q0 -48 33.5 -79.5t102.5 -31.5q52 0 85 17.5t44.5 44t11.5 49.5
q0 35 -22 63t-54.5 38.5t-64.5 10.5z" />
    <glyph glyph-name="nine" unicode="9" horiz-adv-x="547" 
d="M356 230q-19 -10 -45 -17t-48 -7q-50 0 -94 18t-77 50.5t-51 76.5t-18 93q0 44 18.5 87.5t52.5 77.5t79.5 54t96.5 20q46 0 91 -18t80 -51t55 -77.5t20 -93.5q0 -40 -13.5 -85t-56.5 -118q-35 -60 -100.5 -155.5t-86.5 -119.5l-56 34q18 19 80.5 112.5t72.5 118.5z
M445 442q0 26 -9 55t-31 55t-56.5 44.5t-78.5 18.5q-43 0 -85.5 -22.5t-66 -63.5t-23.5 -84q0 -26 9.5 -54.5t31 -54.5t56.5 -44.5t78 -18.5q34 0 66 12.5t56.5 35.5t38.5 54.5t14 66.5z" />
    <glyph glyph-name="colon" unicode=":" horiz-adv-x="207" 
d="M68 333v134h71v-134h-71zM68 0v133h71v-133h-71z" />
    <glyph glyph-name="semicolon" unicode=";" horiz-adv-x="207" 
d="M68 -73v206h71v-133zM68 333v134h71v-134h-71z" />
    <glyph glyph-name="less" unicode="&#x3c;" horiz-adv-x="513" 
d="M13 326l467 250v-74l-334 -176l334 -175v-74z" />
    <glyph glyph-name="equal" unicode="=" horiz-adv-x="600" 
d="M55 442h482v-72h-482v72zM55 283h482v-72h-482v72z" />
    <glyph glyph-name="greater" unicode="&#x3e;" horiz-adv-x="513" 
d="M33 577l467 -250l-467 -249v74l334 175l-334 176v74z" />
    <glyph glyph-name="question" unicode="?" horiz-adv-x="516" 
d="M16 547q23 45 63 78t83 45.5t77 12.5q45 0 90.5 -13.5t81 -45.5t57.5 -82t22 -116v-227h-335v69h265v163q0 57 -24.5 99t-63.5 64t-90 22q-26 0 -58 -9t-61 -33.5t-46 -56.5zM167 49q0 26 17 43t43 17q23 0 40.5 -17t17.5 -41t-17 -41.5t-41 -17.5t-42 17t-18 40z" />
    <glyph glyph-name="at" unicode="@" horiz-adv-x="702" 
d="M473 225h120q13 14 27 45t14 61q0 59 -20.5 111.5t-58 91.5t-90.5 60.5t-115 21.5q-58 0 -110 -22.5t-90.5 -62t-60 -92t-21.5 -108.5q0 -57 22 -109.5t61 -92.5t91 -62t108 -22h14v-50h-14q-70 0 -132 25t-107.5 70.5t-71 107.5t-25.5 133q0 67 26 129t72.5 108.5
t108.5 72.5t129 26q68 0 130 -24.5t108 -69.5t72 -107.5t26 -134.5q0 -34 -13.5 -67.5t-28 -54.5t-23.5 -31h-213l8 57q-17 -28 -51 -45.5t-66 -17.5q-28 0 -60 11.5t-53 43.5t-21 79q0 57 24 99.5t65.5 68t89.5 25.5q23 0 51 -8t48 -28l3 27h64zM423 300l15 111
q-31 36 -90 36q-24 0 -49.5 -14t-43.5 -46.5t-18 -70.5q0 -22 7.5 -43.5t27 -33.5t46.5 -12t53 14.5t52 58.5z" />
    <glyph glyph-name="A" unicode="A" horiz-adv-x="663" 
d="M502 170h-339l-82 -170h-80l332 676h4l327 -676h-81zM468 239l-135 286l-137 -286h272z" />
    <glyph glyph-name="B" unicode="B" horiz-adv-x="663" 
d="M440 0h-372v667h367q41 0 82.5 -22t65 -62t23.5 -81q0 -47 -22 -83t-54 -54q24 -10 49.5 -34t42 -58.5t16.5 -79.5q0 -29 -10.5 -61t-38 -65t-68.5 -50t-81 -17zM439 70q23 0 51.5 13t49.5 45t21 68q0 51 -36.5 87.5t-92.5 36.5h-294v-250h301zM423 385q21 0 46 11t43 38
t18 59q0 31 -18.5 57.5t-43 37t-43.5 10.5h-287v-213h285z" />
    <glyph glyph-name="C" unicode="C" horiz-adv-x="639" 
d="M581 143l53 -53q-46 -49 -112 -77.5t-138 -28.5q-70 0 -134.5 27t-113 75.5t-75.5 112.5t-27 134t27.5 134.5t75.5 112.5t112.5 75.5t134.5 27.5q73 0 139.5 -28t112.5 -79l-54 -54q-36 41 -88 65t-109 24q-54 0 -104 -21.5t-87.5 -60t-58.5 -89.5t-21 -107t21 -107
t58.5 -89t87.5 -59.5t104 -21.5q56 0 107 23t89 64z" />
    <glyph glyph-name="D" unicode="D" horiz-adv-x="686" 
d="M68 667h254q67 0 128.5 -26t107.5 -72t72 -107.5t26 -128.5t-26 -128t-72 -107t-107.5 -72t-128.5 -26h-254v667zM138 69h183q53 0 100.5 20.5t83 57t55 85t19.5 101.5q0 39 -13 83.5t-49 89.5t-89.5 68.5t-106.5 23.5h-183v-529z" />
    <glyph glyph-name="E" unicode="E" horiz-adv-x="579" 
d="M68 0v667h496v-69h-426v-224h352v-69h-352v-236h421v-69h-491z" />
    <glyph glyph-name="F" unicode="F" horiz-adv-x="550" 
d="M68 0v667h474v-69h-404v-225h328v-69h-328v-304h-70z" />
    <glyph glyph-name="G" unicode="G" horiz-adv-x="732" 
d="M623 576l-59 -51q-38 41 -86 64t-103 23q-54 0 -102.5 -21.5t-84 -60t-55.5 -90t-20 -107.5t20 -107t55.5 -89.5t84 -60t102.5 -21.5q53 0 99 20t79.5 54t53 78.5t22.5 90.5h-281v69h361l1 -34q0 -70 -25 -134.5t-71 -112.5t-108 -75t-132 -27t-133 27t-109 75t-72 112.5
t-26 134.5t26 134.5t72 113t109 75.5t133 27q72 0 136.5 -28t112.5 -79z" />
    <glyph glyph-name="H" unicode="H" horiz-adv-x="654" 
d="M68 0v667h70v-300h377v300h71v-667h-71v298h-377v-298h-70z" />
    <glyph glyph-name="I" unicode="I" horiz-adv-x="227" 
d="M78 0v667h71v-667h-71z" />
    <glyph glyph-name="J" unicode="J" horiz-adv-x="262" 
d="M200 667v-459q0 -47 -10 -87t-56 -89q-9 -9 -37 -39t-41 -44t-20 -20l-51 48l100 108q29 32 36 61.5t7 64.5v387h-107v69h179z" />
    <glyph glyph-name="K" unicode="K" horiz-adv-x="647" 
d="M68 0v667h70v-296h198l228 296h89l-250 -327l264 -340h-92l-237 302h-200v-302h-70z" />
    <glyph glyph-name="L" unicode="L" horiz-adv-x="573" 
d="M68 0v667h70v-601h362v142h68v-208h-500z" />
    <glyph glyph-name="M" unicode="M" horiz-adv-x="755" 
d="M68 0v682l310 -263l309 263v-682h-70v533l-241 -208l-238 206v-531h-70z" />
    <glyph glyph-name="N" unicode="N" horiz-adv-x="652" 
d="M68 0v676l445 -501v492h70v-679l-445 503v-491h-70z" />
    <glyph glyph-name="O" unicode="O" horiz-adv-x="769" 
d="M384 683q70 0 134.5 -27.5t112.5 -75.5t75.5 -112.5t27.5 -134.5t-27 -134t-75.5 -112.5t-113 -75.5t-134.5 -27t-134.5 27t-113 75.5t-75.5 112.5t-27 134t27.5 134.5t75.5 112.5t112.5 75.5t134.5 27.5zM384 614q-54 0 -104 -21.5t-87.5 -60.5t-58.5 -90.5t-21 -108.5
t21 -108.5t58.5 -90t87.5 -60t104 -21.5t104 21.5t87.5 60t58.5 90t21 108.5t-21 108.5t-58.5 90.5t-87.5 60.5t-104 21.5z" />
    <glyph glyph-name="P" unicode="P" horiz-adv-x="630" 
d="M138 0h-70v667h341q53 0 103 -26t77 -74.5t27 -100.5q0 -39 -15 -75.5t-43 -65t-65.5 -44.5t-79.5 -16h-275v-265zM138 598v-264h267q24 0 54 12t54 44t24 76q0 45 -24.5 76.5t-54.5 43.5t-54 12h-266z" />
    <glyph glyph-name="Q" unicode="Q" horiz-adv-x="768" 
d="M734 333q0 -66 -24 -126t-66.5 -106.5t-100.5 -76t-122 -36.5v-114h-74v114q-64 7 -122 36.5t-100.5 76t-66.5 106.5t-24 126q0 70 27.5 134.5t75.5 112.5t112.5 75.5t134.5 27.5t134.5 -27.5t112.5 -75.5t75.5 -112.5t27.5 -134.5zM113 333q0 -52 17.5 -99.5t49.5 -85
t75 -61.5t92 -32v173h74v-173q36 5 75.5 23t79 57t59.5 92.5t20 105.5q0 57 -21 108.5t-58.5 90.5t-87.5 60.5t-104 21.5t-104 -21.5t-87.5 -60.5t-58.5 -90.5t-21 -108.5z" />
    <glyph glyph-name="R" unicode="R" horiz-adv-x="641" 
d="M68 667h348q33 0 67.5 -11.5t64 -37.5t49 -65.5t19.5 -87.5q0 -47 -20 -87t-57 -69.5t-83 -37.5l174 -271h-88l-167 265h-237v-265h-70v667zM138 334h271q29 0 58.5 13t49.5 46t20 72q0 23 -11.5 53.5t-42.5 55t-76 24.5h-269v-264z" />
    <glyph glyph-name="S" unicode="S" horiz-adv-x="583" 
d="M294 -16q-61 0 -109.5 21.5t-84 62t-50.5 98.5l70 18q13 -57 61 -94.5t111 -37.5q59 0 97.5 23.5t58.5 62.5t23 94l-429 159l-1 53q0 43 18 86.5t50.5 78t78 54.5t96.5 20q54 0 107.5 -21.5t90 -64t49.5 -91.5l-72 -17q-8 36 -36.5 68t-65 45t-71.5 13q-68 0 -117 -49
t-56 -123l427 -158q4 -19 4 -51q0 -48 -18 -93t-51 -80.5t-80 -56t-101 -20.5z" />
    <glyph glyph-name="T" unicode="T" horiz-adv-x="521" 
d="M516 598h-214v-598h-72v598h-225v69h511v-69z" />
    <glyph glyph-name="U" unicode="U" horiz-adv-x="620" 
d="M65 235v432h71v-434q0 -25 9 -54t30 -55.5t55.5 -45.5t79.5 -19q26 0 55.5 9t55.5 31t44.5 56.5t18.5 77.5v434h71v-432q0 -49 -19 -94t-53 -79t-79 -53t-94 -19q-50 0 -95 19t-78.5 53t-52.5 79t-19 94z" />
    <glyph glyph-name="V" unicode="V" horiz-adv-x="583" 
d="M0 667h79l214 -520l215 520h75l-288 -683h-7z" />
    <glyph glyph-name="W" unicode="W" horiz-adv-x="716" 
d="M102 667l33 -536l220 213l222 -213l35 536h71l-50 -685l-277 263l-277 -263l-50 685h73z" />
    <glyph glyph-name="X" unicode="X" horiz-adv-x="597" 
d="M88 0h-88l255 333l-256 334h92l207 -276l210 276h88l-254 -333l254 -334h-92l-206 276z" />
    <glyph glyph-name="Y" unicode="Y" horiz-adv-x="677" 
d="M304 0v286l-304 381h93l251 -313l248 313h85l-303 -380v-287h-70z" />
    <glyph glyph-name="Z" unicode="Z" horiz-adv-x="572" 
d="M29 430v237h538l-426 -598h337v168h69v-237h-542l426 598h-333v-168h-69z" />
    <glyph glyph-name="bracketleft" unicode="[" horiz-adv-x="278" 
d="M76 753h178v-66h-108v-730h108v-66h-178v862z" />
    <glyph glyph-name="backslash" unicode="\" horiz-adv-x="338" 
d="M97 667l207 -683h-71l-207 683h71z" />
    <glyph glyph-name="bracketright" unicode="]" horiz-adv-x="278" 
d="M24 753h178v-862h-178v66h108v730h-108v66z" />
    <glyph glyph-name="asciicircum" unicode="^" horiz-adv-x="513" 
d="M6 357l249 387l249 -387h-74l-175 253l-175 -253h-74z" />
    <glyph glyph-name="underscore" unicode="_" horiz-adv-x="600" 
d="M600 -133v-67h-600v67h600z" />
    <glyph glyph-name="grave" unicode="`" horiz-adv-x="335" 
d="M268 756v-70l-201 51v70z" />
    <glyph glyph-name="a" unicode="a" horiz-adv-x="695" 
d="M81 0h-80l344 676h4l348 -676h-81l-87 170h-362zM493 239l-146 290l-145 -290h291z" />
    <glyph glyph-name="b" unicode="b" horiz-adv-x="526" 
d="M304 0h-236v667h231q41 0 82.5 -22t65 -62t23.5 -81q0 -47 -22 -83t-54 -54q24 -10 49.5 -34t42 -58.5t16.5 -79.5q0 -29 -10.5 -61t-38 -65t-68.5 -50t-81 -17zM303 70q23 0 51.5 13t49.5 45t21 68q0 51 -36.5 87.5t-92.5 36.5h-158v-250h165zM287 385q21 0 46 11t43 38
t18 59q0 31 -18.5 57.5t-43 37t-43.5 10.5h-151v-213h149z" />
    <glyph glyph-name="c" unicode="c" horiz-adv-x="479" 
d="M476 237q-35 -37 -84.5 -58.5t-103.5 -21.5q-53 0 -101 20.5t-84 56.5t-56.5 84t-20.5 100q0 53 20.5 101.5t56.5 84.5t84 56.5t101 20.5q55 0 105 -20.5t84 -59.5q-24 -26 -50 -50q-26 28 -62 44.5t-76 16.5q-38 0 -72.5 -15t-61 -41.5t-41 -62.5t-14.5 -75
q0 -49 25 -95.5t71 -72t93 -25.5q40 0 76 16t62 44zM455 67v-67h-381v67h381z" />
    <glyph glyph-name="d" unicode="d" horiz-adv-x="608" 
d="M68 667h177q67 0 128.5 -26t107.5 -72t72 -107.5t26 -128.5t-26 -128t-72 -107t-107.5 -72t-128.5 -26h-177v667zM138 69h106q53 0 100.5 20.5t83 57t55 85t19.5 101.5q0 39 -13 83.5t-49 89.5t-89.5 68.5t-106.5 23.5h-106v-529z" />
    <glyph glyph-name="e" unicode="e" horiz-adv-x="450" 
d="M68 0v667h370v-69h-300v-224h256v-69h-256v-236h295v-69h-365z" />
    <glyph glyph-name="f" unicode="f" horiz-adv-x="437" 
d="M68 0v667h362v-69h-292v-225h257v-69h-257v-304h-70z" />
    <glyph glyph-name="g" unicode="g" horiz-adv-x="549" 
d="M467 599q-6 -5 -26.5 -23t-27.5 -25q-56 61 -132 61q-28 0 -59 -10t-58.5 -34.5t-46.5 -63t-19 -87.5q0 -39 14 -75t39 -63t58.5 -42.5t71.5 -15.5q74 0 122 42t55 113h-196v65h269l2 -29q0 -53 -19 -100.5t-53.5 -82.5t-81 -54.5t-98.5 -19.5q-39 0 -82 13.5t-86 50.5
t-65 91t-22 107t19.5 101.5t54 84.5t81.5 56.5t100 20.5q54 0 102 -21.5t84 -59.5zM495 67v-67h-431v67h431z" />
    <glyph glyph-name="h" unicode="h" horiz-adv-x="704" 
d="M68 0v667h71v-300h426v300h71v-667h-71v298h-426v-298h-71z" />
    <glyph glyph-name="i" unicode="i" horiz-adv-x="250" 
d="M162 69h63v-69h-200v69h67v529h-67v69h200v-69h-63v-529z" />
    <glyph glyph-name="j" unicode="j" horiz-adv-x="262" 
d="M200 667v-529q0 -47 -10 -87t-56 -89q-9 -9 -37 -39t-41 -44t-20 -20l-51 48l100 108q29 32 36 61.5t7 64.5v457h-107v69h179z" />
    <glyph glyph-name="k" unicode="k" horiz-adv-x="528" 
d="M68 0v667h70v-296h112l197 296h87q-8 -11 -43 -62.5t-105 -156.5l-72 -108q1 -1 4.5 -6.5t103.5 -152t126 -181.5h-89l-206 302h-115v-302h-70z" />
    <glyph glyph-name="l" unicode="l" horiz-adv-x="487" 
d="M138 69h260v139h69v-208h-399v667h70v-598z" />
    <glyph glyph-name="m" unicode="m" horiz-adv-x="755" 
d="M376 328l-225 204l-28 -532h-75l40 685l290 -263l289 263l40 -685h-77l-29 537z" />
    <glyph glyph-name="n" unicode="n" horiz-adv-x="739" 
d="M670 667v-679l-532 517v-505h-70v676l532 -515v506h70z" />
    <glyph glyph-name="o" unicode="o" horiz-adv-x="577" 
d="M288 679q53 0 101 -20.5t84.5 -56.5t57 -84.5t20.5 -101.5q0 -39 -13.5 -82.5t-51 -88t-91.5 -67.5t-107 -23t-101 20.5t-84 56.5t-56.5 84t-20.5 100q0 53 20.5 101.5t56.5 84.5t84 56.5t101 20.5zM288 613q-38 0 -72.5 -15.5t-61 -42.5t-41 -63t-14.5 -76q0 -29 10 -62
t36.5 -66t65.5 -50t77 -17q28 0 60 10t64 37.5t48.5 67.5t16.5 80q0 50 -25 97.5t-70.5 73.5t-93.5 26zM503 67v-67h-429v67h429z" />
    <glyph glyph-name="p" unicode="p" horiz-adv-x="552" 
d="M138 0h-70v667h263q53 0 103 -26t77 -74.5t27 -100.5q0 -39 -15 -75.5t-43 -65t-65.5 -44.5t-79.5 -16h-197v-265zM138 598v-264h189q32 0 64 16.5t50.5 48.5t18.5 67q0 45 -24.5 76.5t-55 43.5t-54.5 12h-188z" />
    <glyph glyph-name="q" unicode="q" horiz-adv-x="576" 
d="M551 416q0 -36 -11.5 -77t-43.5 -83.5t-79 -67.5t-93 -30v-49h-74v48q-96 15 -160 87.5t-64 171.5q0 53 20.5 101.5t56.5 84.5t84 56.5t101 20.5t101 -20.5t84.5 -56.5t57 -84.5t20.5 -101.5zM99 413q0 -44 19.5 -83.5t55.5 -68t78 -36.5v115h72v-115q29 6 58.5 23t50 41
t32.5 56t12 68q0 29 -10 62.5t-36.5 67.5t-65.5 52t-77 18q-47 0 -93 -27t-71 -75.5t-25 -97.5zM503 67v-67h-429v67h429z" />
    <glyph glyph-name="r" unicode="r" horiz-adv-x="577" 
d="M68 667h284q33 0 67.5 -11.5t64 -37.5t49 -65.5t19.5 -87.5q0 -47 -20 -87t-57 -69.5t-83 -37.5l174 -271h-88l-167 265h-173v-265h-70v667zM138 334h207q29 0 58.5 13t49.5 46t20 72q0 23 -11.5 53.5t-42.5 55t-76 24.5h-205v-264z" />
    <glyph glyph-name="s" unicode="s" horiz-adv-x="615" 
d="M118 437l460 -134q4 -15 4 -38q0 -57 -20 -108.5t-57 -90t-88.5 -60.5t-111.5 -22q-103 0 -172.5 54.5t-101.5 150.5l71 23q9 -38 37 -75.5t70.5 -60t95.5 -22.5q35 0 71 11t65 36.5t47.5 63.5t18.5 85l-461 133q-3 11 -3 28q0 55 20 104.5t56.5 87.5t87 59t108.5 21
q60 0 111 -23t90 -64t55 -94l-73 -21q-23 57 -70 94.5t-113 37.5q-52 0 -98.5 -24t-72 -67t-26.5 -85z" />
    <glyph glyph-name="t" unicode="t" horiz-adv-x="581" 
d="M576 598h-243v-598h-74v598h-254v69h571v-69z" />
    <glyph glyph-name="u" unicode="u" horiz-adv-x="665" 
d="M65 246v421h71v-421q0 -29 11 -61t36 -60t63 -47t84 -19q45 0 92.5 24t75 68t27.5 91v425h70v-421q0 -50 -20.5 -97t-57.5 -83t-85.5 -56t-101.5 -20q-54 0 -103 20t-85 55t-56.5 82t-20.5 99z" />
    <glyph glyph-name="v" unicode="v" horiz-adv-x="643" 
d="M0 667h79l244 -520l245 520h75l-318 -683h-7z" />
    <glyph glyph-name="w" unicode="w" horiz-adv-x="776" 
d="M102 667l62 -521l221 243l227 -245l60 523h71l-80 -680l-277 298l-277 -298l-80 680h73z" />
    <glyph glyph-name="x" unicode="x" horiz-adv-x="637" 
d="M546 0l-228 280l-229 -280h-88l272 332l-272 335h92l226 -281l229 281h88l-272 -333l272 -334h-90z" />
    <glyph glyph-name="y" unicode="y" horiz-adv-x="756" 
d="M343 0v236l-345 431h91l292 -362l287 362h88l-343 -430v-237h-70z" />
    <glyph glyph-name="z" unicode="z" horiz-adv-x="542" 
d="M29 492v175h508l-403 -602h312v108h71v-173h-512l407 602h-312v-110h-71z" />
    <glyph glyph-name="braceleft" unicode="{" horiz-adv-x="353" 
d="M39 294v66h21q61 0 72 22v261q0 52 36.5 81t97.5 29h48v-66h-60q-21 0 -36 -18.5t-15 -48.5v-222q0 -55 -53 -71q53 -17 53 -67v-249q0 -27 12.5 -40.5t42.5 -13.5h56v-66h-75q-26 0 -51.5 11.5t-40.5 32.5t-15 52v267q-7 24 -27 32t-45 8h-21z" />
    <glyph glyph-name="bar" unicode="|" horiz-adv-x="188" 
d="M61 -130v883h70v-883h-70z" />
    <glyph glyph-name="braceright" unicode="}" horiz-adv-x="353" 
d="M314 360v-66h-21q-25 0 -45 -8t-27 -32v-267q0 -25 -12.5 -47.5t-40.5 -35.5t-54 -13h-75v66h56q22 0 38.5 10t16.5 44v249q0 50 53 67q-53 16 -53 71v222q0 30 -15 48.5t-36 18.5h-60v66h59q59 0 91 -31.5t32 -85.5v-254q11 -22 72 -22h21z" />
    <glyph glyph-name="asciitilde" unicode="~" horiz-adv-x="481" 
d="M0 303v67q18 29 53 47t71 18q35 0 71 -17.5t67 -44.5q51 -44 64 -50t24.5 -9t24.5 -3q28 0 58.5 19.5t47.5 49.5v-67q-20 -30 -51.5 -47.5t-67.5 -17.5q-37 0 -65 10t-63 39q-4 3 -9 7.5t-41.5 35.5t-69.5 31q-36 0 -65.5 -19.5t-48.5 -48.5z" />
    <glyph glyph-name="uni00A0" unicode="&#xa0;" horiz-adv-x="200" 
 />
    <glyph glyph-name="exclamdown" unicode="&#xa1;" horiz-adv-x="205" 
d="M132 456l17 -463h-96l19 463h60zM161 616q0 -25 -17 -42t-42 -17q-24 0 -41 17t-17 41t17 41t41 17t41.5 -16.5t17.5 -40.5z" />
    <glyph glyph-name="cent" unicode="&#xa2;" horiz-adv-x="473" 
d="M231 548v73h74v-73q47 -7 90.5 -33.5t71.5 -67.5l-60 -34q-21 27 -57.5 47.5t-79.5 20.5q-27 0 -56.5 -9t-56 -30.5t-45 -55.5t-18.5 -77q0 -26 9 -54.5t30.5 -54.5t56.5 -44.5t80 -18.5q40 0 77.5 18.5t58.5 48.5l56 -39q-62 -81 -157 -94v-74h-74v74q-45 5 -83.5 27.5
t-66 56t-42 74t-14.5 80.5q0 19 4.5 45t17.5 54.5t37 57.5t62.5 51.5t84.5 30.5z" />
    <glyph glyph-name="sterling" unicode="&#xa3;" horiz-adv-x="498" 
d="M30 0v65q10 0 17 3q38 13 63 77.5t36 188.5h-76v66h84l11 80q15 107 68 154t138 47q21 0 40 -3.5t32 -8t21 -8t14.5 -7t8.5 -4.5l-22 -61q-17 12 -44.5 19.5t-52.5 7.5q-54 0 -85 -31t-42 -96l-13 -89h210v-66h-218q-9 -106 -27.5 -173.5t-63.5 -91.5h327v-69h-426z" />
    <glyph glyph-name="currency" unicode="&#xa4;" horiz-adv-x="577" 
d="M506 152l-38 -34l-64 75q-24 -20 -56.5 -30t-59.5 -10q-30 0 -62.5 10t-54.5 28l-63 -73l-39 36l65 70q-41 59 -41 141q0 40 11 77t30 63l-64 72l39 34l61 -74q17 15 48 27.5t70 12.5q32 0 64 -10t54 -30l62 74l37 -34l-63 -71q19 -26 30.5 -64t11.5 -77q0 -31 -9 -69.5
t-34 -72.5zM288 524q-60 0 -97 -43t-37 -116q0 -74 37 -116.5t97 -42.5t97.5 43t37.5 116t-37.5 116t-97.5 43z" />
    <glyph glyph-name="yen" unicode="&#xa5;" horiz-adv-x="563" 
d="M103 315h146l-250 352h85l202 -284l193 284h85l-245 -352h148v-59h-148v-62h146v-56h-146v-138h-70v138h-146v56h146v62h-146v59z" />
    <glyph glyph-name="brokenbar" unicode="&#xa6;" horiz-adv-x="264" 
d="M101 850h61v-497h-61v497zM101 247h61v-497h-61v497z" />
    <glyph glyph-name="section" unicode="&#xa7;" horiz-adv-x="609" 
d="M108 114q17 -27 47.5 -43t63.5 -16q30 0 58 14t45 40.5t20 67.5l-280 119q-6 18 -6 49q0 53 37.5 97t103.5 52l-1 20q0 45 22 80.5t63.5 58.5t96.5 23q41 0 77 -12.5t57.5 -33t31.5 -38.5l-68 -26q-28 51 -97 51q-31 0 -57.5 -17.5t-37 -40.5t-10.5 -41q0 -14 4 -26
l276 -116q5 -12 5 -28q0 -34 -14.5 -73t-49 -69t-79.5 -33q-1 -30 -11 -62t-33.5 -59t-61.5 -45.5t-89 -18.5q-29 0 -65 9t-68.5 33t-48.5 57zM490 333l-213 92q-27 12 -54 12q-45 0 -71.5 -26t-22.5 -72l203 -87q32 -13 55 -13t47 10.5t39 31t17 52.5z" />
    <glyph glyph-name="dieresis" unicode="&#xa8;" horiz-adv-x="335" 
d="M17 735q0 20 15 34t34 14q21 0 35 -14t14 -34t-14 -34t-35 -14q-20 0 -34.5 14t-14.5 34zM219 735q0 20 14 34t33 14q21 0 35.5 -14t14.5 -34t-13.5 -34t-34.5 -14q-20 0 -34.5 14t-14.5 34z" />
    <glyph glyph-name="copyright" unicode="&#xa9;" horiz-adv-x="608" 
d="M17 403q0 56 21.5 107.5t60.5 90.5t90.5 60.5t107.5 21.5t107.5 -21.5t90.5 -60.5t60.5 -90.5t21.5 -107.5t-21.5 -107.5t-60.5 -90.5t-90.5 -60.5t-107.5 -21.5t-107.5 21.5t-90.5 60.5t-60.5 90.5t-21.5 107.5zM297 644q-48 0 -91 -18.5t-74.5 -52t-49 -78t-17.5 -92.5
t17.5 -92.5t49 -78t74.5 -52t91 -18.5t91 18.5t74.5 52t49 78t17.5 92.5t-17.5 92.5t-49 78t-74.5 52t-91 18.5zM424 513l-45 -40q-31 32 -74 32q-20 0 -43 -10t-39 -35.5t-16 -56.5q0 -44 28 -73t70 -29t76 33l45 -41q-20 -23 -52.5 -37t-66.5 -14q-71 0 -117 45.5
t-46 116.5q0 42 21 80.5t60 59t81 20.5q28 0 61 -11.5t57 -39.5z" />
    <glyph glyph-name="ordfeminine" unicode="&#xaa;" horiz-adv-x="340" 
d="M167 676q5 0 23 -0.5t60 -4.5t48 -4v-248q-9 0 -32.5 4.5t-34.5 7.5q-10 -8 -28.5 -13.5t-33.5 -5.5q-25 0 -55.5 12.5t-54.5 44t-24 74.5q0 28 13.5 58.5t46 52.5t72.5 22zM105 543q0 -33 24 -57t58 -24q33 0 44 2v158q-16 3 -44 3q-34 0 -58 -24t-24 -58z" />
    <glyph glyph-name="guillemotleft" unicode="&#xab;" horiz-adv-x="426" 
d="M169 519l59 -21l-127 -185l127 -184l-60 -21l-136 205zM348 519l59 -21l-127 -185l127 -184l-60 -21l-136 205z" />
    <glyph glyph-name="logicalnot" unicode="&#xac;" horiz-adv-x="558" 
d="M506 142h-63v221h-392v61h455v-282z" />
    <glyph glyph-name="uni00AD" unicode="&#xad;" horiz-adv-x="357" 
d="M37 361h282v-70h-282v70z" />
    <glyph glyph-name="registered" unicode="&#xae;" horiz-adv-x="608" 
d="M17 403q0 56 21.5 107.5t60.5 90.5t90.5 60.5t107.5 21.5t107.5 -21.5t90.5 -60.5t60.5 -90.5t21.5 -107.5t-21.5 -107.5t-60.5 -90.5t-90.5 -60.5t-107.5 -21.5t-107.5 21.5t-90.5 60.5t-60.5 90.5t-21.5 107.5zM297 644q-48 0 -91 -18.5t-74.5 -52t-49 -78t-17.5 -92.5
t17.5 -92.5t49 -78t74.5 -52t91 -18.5t91 18.5t74.5 52t49 78t17.5 92.5t-17.5 92.5t-49 78t-74.5 52t-91 18.5zM253 356v-92h-58v274h121q30 0 54.5 -12.5t34 -34t9.5 -43.5q0 -32 -17.5 -54.5t-47.5 -29.5l65 -100h-64l-54 92h-43zM253 486v-80h66q11 0 22.5 11t11.5 29
t-11 29t-25 11h-64z" />
    <glyph glyph-name="macron" unicode="&#xaf;" horiz-adv-x="335" 
d="M45 716v74h241v-74h-241z" />
    <glyph glyph-name="degree" unicode="&#xb0;" horiz-adv-x="342" 
d="M48 560q0 50 36.5 86.5t86.5 36.5t86.5 -36.5t36.5 -86.5q0 -23 -12.5 -51.5t-43.5 -49.5t-67 -21t-67 21t-43.5 49.5t-12.5 51.5zM171 626q-27 0 -46.5 -19.5t-19.5 -46.5q0 -26 19.5 -45.5t46.5 -19.5t46.5 19.5t19.5 45.5q0 27 -19.5 46.5t-46.5 19.5z" />
    <glyph glyph-name="plusminus" unicode="&#xb1;" horiz-adv-x="564" 
d="M509 337h-191v-188h-74v188h-193v72h193v180h74v-180h191v-72zM508 29h-454v62h454v-62z" />
    <glyph glyph-name="uni00B2" unicode="&#xb2;" horiz-adv-x="392" 
d="M41 302v42l64 63q84 83 117 128.5t33 85.5q0 22 -10 42t-30.5 29.5t-47.5 9.5q-24 0 -52.5 -10.5t-45.5 -24.5l-19 41q25 20 60 32.5t73 12.5q32 0 63.5 -11.5t52 -42t20.5 -69.5q0 -41 -25 -86.5t-123 -141.5l-50 -49h205v-51h-285z" />
    <glyph glyph-name="uni00B3" unicode="&#xb3;" horiz-adv-x="388" 
d="M71 677l-16 44q24 15 57.5 23.5t65.5 8.5q65 0 100.5 -29.5t35.5 -75.5q0 -34 -23 -62.5t-65 -43.5q48 -8 76.5 -40.5t28.5 -72.5q0 -34 -17.5 -62.5t-55.5 -48.5t-97 -20q-37 0 -71 8t-54 21l15 46q17 -11 46.5 -19.5t55.5 -8.5q23 0 49.5 8t44.5 29.5t18 50.5
q0 18 -11.5 38.5t-42.5 34t-71 13.5h-29v45h28q22 0 48 7t44.5 25.5t18.5 42.5q0 30 -22 48.5t-64 18.5q-24 0 -51 -9t-42 -20z" />
    <glyph glyph-name="acute" unicode="&#xb4;" horiz-adv-x="335" 
d="M67 686v70l201 51v-70z" />
    <glyph glyph-name="uni00B5" unicode="&#xb5;" horiz-adv-x="525" 
d="M458 0h-61v70q-43 -80 -135 -80q-86 0 -124 66v-306h-66v790h76v-349q0 -25 6 -49.5t22 -44.5t41 -29.5t48 -9.5t48 9.5t41 29.5t22 44.5t6 49.5v349h76v-540z" />
    <glyph glyph-name="paragraph" unicode="&#xb6;" horiz-adv-x="477" 
d="M206 375h-30q-66 0 -111 41t-45 105q0 22 7.5 46.5t25.5 46.5t47 37.5t66 15.5h239v-758h-62v704h-75v-704h-62v466z" />
    <glyph glyph-name="periodcentered" unicode="&#xb7;" horiz-adv-x="193" 
d="M137 260h-81v132h81v-132z" />
    <glyph glyph-name="cedilla" unicode="&#xb8;" horiz-adv-x="342" 
d="M138 -63v63h61v-51l100 -93q-1 -36 -22 -66t-49.5 -41.5t-51.5 -11.5q-36 0 -67 21t-43.5 49.5t-12.5 51.5h58q0 -16 7.5 -32.5t24 -25.5t33.5 -9q19 0 37.5 10.5t28.5 38.5z" />
    <glyph glyph-name="uni00B9" unicode="&#xb9;" horiz-adv-x="316" 
d="M197 302h-63v389l-76 -38l-13 45l99 51h53v-447z" />
    <glyph glyph-name="ordmasculine" unicode="&#xba;" horiz-adv-x="298" 
d="M149 410q-54 0 -94 40t-40 94t40 94t94 40t94 -40t40 -94t-40 -94t-94 -40zM76 545q0 -30 21.5 -51.5t51.5 -21.5t51.5 21.5t21.5 51.5t-21.5 51.5t-51.5 21.5t-51.5 -21.5t-21.5 -51.5z" />
    <glyph glyph-name="guillemotright" unicode="&#xbb;" horiz-adv-x="426" 
d="M198 498l59 21l137 -206l-136 -205l-60 21l127 184zM19 498l59 21l137 -206l-136 -205l-60 21l127 184z" />
    <glyph glyph-name="onequarter" unicode="&#xbc;" horiz-adv-x="740" 
d="M618 0h-59v120h-197v35l199 288h57v-277h71v-46h-71v-120zM194 302h-63v387l-78 -38l-14 44l100 51h55v-444zM176 -14h-53l377 767h53zM559 166l1 204l-140 -204h139z" />
    <glyph glyph-name="onehalf" unicode="&#xbd;" horiz-adv-x="789" 
d="M438 0v42l71 68q81 78 112 123.5t31 86.5q0 37 -22 59t-65 22q-25 0 -53 -10.5t-46 -25.5l-19 41q25 20 60 33t73 13q66 0 101 -35.5t35 -87.5q0 -39 -24 -85.5t-121 -141.5l-53 -52h205v-50h-285zM194 302h-63v387l-78 -38l-14 44l100 51h55v-444zM176 -14h-53l377 767
h53z" />
    <glyph glyph-name="threequarters" unicode="&#xbe;" horiz-adv-x="818" 
d="M71 675l-16 44q24 15 57.5 23.5t65.5 8.5q65 0 100.5 -29t35.5 -76q0 -34 -23 -62.5t-65 -43.5q48 -7 76.5 -39.5t28.5 -72.5q0 -20 -7.5 -42t-27 -42t-53 -34t-82.5 -14q-37 0 -71 8t-54 21l15 46q16 -11 45.5 -19t56.5 -8q51 0 81.5 23.5t30.5 64.5q0 18 -11.5 38
t-42.5 33.5t-71 13.5h-29v45h28q22 0 48 7t44.5 25.5t18.5 42.5q0 30 -22 48.5t-64 18.5q-24 0 -51 -9t-42 -20zM697 0h-60v120h-197v35l199 288h58v-277h70v-46h-70v-120zM255 -14h-53l377 767h53zM637 166l2 204l-141 -204h139z" />
    <glyph glyph-name="questiondown" unicode="&#xbf;" horiz-adv-x="516" 
d="M500 120q-23 -45 -63 -78t-83 -45.5t-77 -12.5q-45 0 -90.5 13.5t-81 45.5t-57.5 82t-22 116v227h335v-69h-265v-163q0 -57 24.5 -99t63.5 -64t90 -22q26 0 58 9t61 33.5t46 56.5zM349 618q0 -26 -17 -43t-43 -17q-23 0 -40.5 17t-17.5 41t17 41.5t41 17.5t42 -17t18 -40
z" />
    <glyph glyph-name="Agrave" unicode="&#xc0;" horiz-adv-x="663" 
d="M502 170h-339l-82 -170h-80l332 676h4l327 -676h-81zM468 239l-135 286l-137 -286h272zM410 748v-70l-201 51v70z" />
    <glyph glyph-name="Aacute" unicode="&#xc1;" horiz-adv-x="663" 
d="M502 170h-339l-82 -170h-80l332 676h4l327 -676h-81zM468 239l-135 286l-137 -286h272zM239 682v70l201 51v-70z" />
    <glyph glyph-name="Acircumflex" unicode="&#xc2;" horiz-adv-x="663" 
d="M502 170h-339l-82 -170h-80l332 676h4l327 -676h-81zM468 239l-135 286l-137 -286h272zM329 800l157 -87l-32 -48l-125 67l-125 -67l-32 48z" />
    <glyph glyph-name="Atilde" unicode="&#xc3;" horiz-adv-x="663" 
d="M502 170h-339l-82 -170h-80l332 676h4l327 -676h-81zM468 239l-135 286l-137 -286h272zM263 797q27 -9 72 -30q42 -20 68 -29q14 0 22 11t8 30h57q0 -46 -26.5 -74.5t-67.5 -28.5q-27 9 -72 30q-48 22 -68 29q-14 0 -22 -11t-8 -30h-57q0 46 26.5 74.5t67.5 28.5z" />
    <glyph glyph-name="Adieresis" unicode="&#xc4;" horiz-adv-x="663" 
d="M502 170h-339l-82 -170h-80l332 676h4l327 -676h-81zM468 239l-135 286l-137 -286h272zM106 649q0 20 14 34t33 14q21 0 35.5 -14t14.5 -34t-13.5 -34t-34.5 -14q-20 0 -34.5 14t-14.5 34zM467 649q0 20 14 34t33 14q21 0 35.5 -14t14.5 -34t-13.5 -34t-34.5 -14
q-20 0 -34.5 14t-14.5 34z" />
    <glyph glyph-name="Aring" unicode="&#xc5;" horiz-adv-x="663" 
d="M443 699q0 -32 -19 -60t-49 -41l289 -598h-81l-81 170h-339q-1 -1 -3.5 -6.5t-35 -71.5t-43.5 -92h-80l293 597q-31 12 -51 40.5t-20 61.5q0 21 11 46.5t39 44.5t60 19q21 0 46.5 -11t44.5 -39t19 -60zM468 239l-135 286l-137 -286h272zM333 754q-22 0 -38 -17t-16 -39
q0 -21 16.5 -37.5t37.5 -16.5t38.5 16.5t17.5 37.5q0 22 -16.5 39t-39.5 17z" />
    <glyph glyph-name="AE" unicode="&#xc6;" horiz-adv-x="910" 
d="M20 0l416 667h459v-69h-385v-224h321v-70h-321v-231h380v-73h-450v170h-231l-105 -170h-84zM252 239h188v306z" />
    <glyph glyph-name="Ccedilla" unicode="&#xc7;" horiz-adv-x="639" 
d="M342 -52l36 36q-69 1 -132 28.5t-111 75.5t-74.5 112t-26.5 133q0 70 27.5 134.5t75.5 112.5t112.5 75.5t134.5 27.5q73 0 139.5 -28t112.5 -79q-2 -2 -20.5 -21t-25 -25t-8.5 -8q-36 41 -88 65t-109 24q-54 0 -104 -21.5t-87.5 -60t-58.5 -89.5t-21 -107t21 -107
t58.5 -89t87.5 -59.5t104 -21.5q56 0 107 23t89 64l53 -53q-43 -46 -102 -73.5t-124 -31.5q24 -15 40.5 -41t16.5 -62q0 -23 -12 -51.5t-43 -49.5t-68 -21q-23 0 -46 9.5t-41 26.5l41 40q19 -19 46 -19t46.5 19t19.5 46t-19.5 46.5t-46.5 19.5z" />
    <glyph glyph-name="Egrave" unicode="&#xc8;" horiz-adv-x="579" 
d="M68 0v667h496v-69h-426v-224h352v-69h-352v-236h421v-69h-491zM382 756v-70l-201 51v70z" />
    <glyph glyph-name="Eacute" unicode="&#xc9;" horiz-adv-x="579" 
d="M68 0v667h496v-69h-426v-224h352v-69h-352v-236h421v-69h-491zM227 698v70l201 51v-70z" />
    <glyph glyph-name="Ecircumflex" unicode="&#xca;" horiz-adv-x="579" 
d="M68 0v667h496v-69h-426v-224h352v-69h-352v-236h421v-69h-491zM312 824l157 -87l-32 -48l-125 67l-125 -67l-32 48z" />
    <glyph glyph-name="Edieresis" unicode="&#xcb;" horiz-adv-x="579" 
d="M68 0v667h496v-69h-426v-224h352v-69h-352v-236h421v-69h-491zM149 751q0 20 15 34t34 14q21 0 35 -14t14 -34t-14 -34t-35 -14q-20 0 -34.5 14t-14.5 34zM351 751q0 20 14 34t33 14q21 0 35.5 -14t14.5 -34t-13.5 -34t-34.5 -14q-20 0 -34.5 14t-14.5 34z" />
    <glyph glyph-name="Igrave" unicode="&#xcc;" horiz-adv-x="227" 
d="M78 0v667h71v-667h-71zM204 756v-70l-201 51v70z" />
    <glyph glyph-name="Iacute" unicode="&#xcd;" horiz-adv-x="227" 
d="M78 0v667h71v-667h-71zM3 684v70l201 51v-70z" />
    <glyph glyph-name="Icircumflex" unicode="&#xce;" horiz-adv-x="227" 
d="M78 0v667h71v-667h-71zM106 815l157 -87l-32 -48l-125 67l-125 -67l-32 48z" />
    <glyph glyph-name="Idieresis" unicode="&#xcf;" horiz-adv-x="227" 
d="M78 0v667h71v-667h-71zM-45 752q0 20 15 34t34 14q21 0 35 -14t14 -34t-14 -34t-35 -14q-20 0 -34.5 14t-14.5 34zM157 752q0 20 14 34t33 14q21 0 35.5 -14t14.5 -34t-13.5 -34t-34.5 -14q-20 0 -34.5 14t-14.5 34z" />
    <glyph glyph-name="Eth" unicode="&#xd0;" horiz-adv-x="686" 
d="M68 0v315h-35v62h35v290h254q67 0 128.5 -26t107.5 -72t72 -107.5t26 -128.5t-26 -128t-72 -107t-107.5 -72t-128.5 -26h-254zM414 315h-276v-246h183q53 0 100.5 20.5t83 57t55 85t19.5 101.5q0 39 -13 83.5t-49 89.5t-89.5 68.5t-106.5 23.5h-183v-221h276v-62z" />
    <glyph glyph-name="Ntilde" unicode="&#xd1;" horiz-adv-x="652" 
d="M68 0v676l445 -501v492h70v-679l-445 503v-491h-70zM248 797q27 -9 72 -30q42 -20 68 -29q14 0 22 11t8 30h57q0 -46 -26.5 -74.5t-67.5 -28.5q-27 9 -72 30q-48 22 -68 29q-14 0 -22 -11t-8 -30h-57q0 46 26.5 74.5t67.5 28.5z" />
    <glyph glyph-name="Ograve" unicode="&#xd2;" horiz-adv-x="769" 
d="M384 683q70 0 134.5 -27.5t112.5 -75.5t75.5 -112.5t27.5 -134.5t-27 -134t-75.5 -112.5t-113 -75.5t-134.5 -27t-134.5 27t-113 75.5t-75.5 112.5t-27 134t27.5 134.5t75.5 112.5t112.5 75.5t134.5 27.5zM384 614q-54 0 -104 -21.5t-87.5 -60.5t-58.5 -90.5t-21 -108.5
t21 -108.5t58.5 -90t87.5 -60t104 -21.5t104 21.5t87.5 60t58.5 90t21 108.5t-21 108.5t-58.5 90.5t-87.5 60.5t-104 21.5zM456 766v-70l-201 51v70z" />
    <glyph glyph-name="Oacute" unicode="&#xd3;" horiz-adv-x="769" 
d="M384 683q70 0 134.5 -27.5t112.5 -75.5t75.5 -112.5t27.5 -134.5t-27 -134t-75.5 -112.5t-113 -75.5t-134.5 -27t-134.5 27t-113 75.5t-75.5 112.5t-27 134t27.5 134.5t75.5 112.5t112.5 75.5t134.5 27.5zM384 614q-54 0 -104 -21.5t-87.5 -60.5t-58.5 -90.5t-21 -108.5
t21 -108.5t58.5 -90t87.5 -60t104 -21.5t104 21.5t87.5 60t58.5 90t21 108.5t-21 108.5t-58.5 90.5t-87.5 60.5t-104 21.5zM301 702v70l201 51v-70z" />
    <glyph glyph-name="Ocircumflex" unicode="&#xd4;" horiz-adv-x="769" 
d="M384 683q70 0 134.5 -27.5t112.5 -75.5t75.5 -112.5t27.5 -134.5t-27 -134t-75.5 -112.5t-113 -75.5t-134.5 -27t-134.5 27t-113 75.5t-75.5 112.5t-27 134t27.5 134.5t75.5 112.5t112.5 75.5t134.5 27.5zM384 614q-54 0 -104 -21.5t-87.5 -60.5t-58.5 -90.5t-21 -108.5
t21 -108.5t58.5 -90t87.5 -60t104 -21.5t104 21.5t87.5 60t58.5 90t21 108.5t-21 108.5t-58.5 90.5t-87.5 60.5t-104 21.5zM376 833l157 -87l-32 -48l-125 67l-125 -67l-32 48z" />
    <glyph glyph-name="Otilde" unicode="&#xd5;" horiz-adv-x="769" 
d="M384 683q70 0 134.5 -27.5t112.5 -75.5t75.5 -112.5t27.5 -134.5t-27 -134t-75.5 -112.5t-113 -75.5t-134.5 -27t-134.5 27t-113 75.5t-75.5 112.5t-27 134t27.5 134.5t75.5 112.5t112.5 75.5t134.5 27.5zM384 614q-54 0 -104 -21.5t-87.5 -60.5t-58.5 -90.5t-21 -108.5
t21 -108.5t58.5 -90t87.5 -60t104 -21.5t104 21.5t87.5 60t58.5 90t21 108.5t-21 108.5t-58.5 90.5t-87.5 60.5t-104 21.5zM309 814q27 -9 72 -30q42 -20 68 -29q14 0 22 11t8 30h57q0 -46 -26.5 -74.5t-67.5 -28.5q-27 9 -72 30q-48 22 -68 29q-14 0 -22 -11t-8 -30h-57
q0 46 26.5 74.5t67.5 28.5z" />
    <glyph glyph-name="Odieresis" unicode="&#xd6;" horiz-adv-x="769" 
d="M384 683q70 0 134.5 -27.5t112.5 -75.5t75.5 -112.5t27.5 -134.5t-27 -134t-75.5 -112.5t-113 -75.5t-134.5 -27t-134.5 27t-113 75.5t-75.5 112.5t-27 134t27.5 134.5t75.5 112.5t112.5 75.5t134.5 27.5zM384 614q-54 0 -104 -21.5t-87.5 -60.5t-58.5 -90.5t-21 -108.5
t21 -108.5t58.5 -90t87.5 -60t104 -21.5t104 21.5t87.5 60t58.5 90t21 108.5t-21 108.5t-58.5 90.5t-87.5 60.5t-104 21.5zM58 681q0 20 14 34t33 14q21 0 35.5 -14t14.5 -34t-13.5 -34t-34.5 -14q-20 0 -34.5 14t-14.5 34zM614 681q0 20 14 34t33 14q21 0 35.5 -14
t14.5 -34t-13.5 -34t-34.5 -14q-20 0 -34.5 14t-14.5 34z" />
    <glyph glyph-name="multiply" unicode="&#xd7;" horiz-adv-x="565" 
d="M507 98l-48 -46l-178 195l-177 -196l-46 46l178 196l-178 197l47 46l177 -195l178 195l47 -45l-180 -198z" />
    <glyph glyph-name="Oslash" unicode="&#xd8;" horiz-adv-x="769" 
d="M52 46l63 62q-38 46 -59.5 104.5t-21.5 120.5q0 70 27.5 134.5t75.5 112.5t112.5 75.5t134.5 27.5q63 0 121.5 -22t104.5 -61l68 67l46 -45l-69 -68q37 -45 58 -102.5t21 -118.5q0 -70 -27 -134t-75.5 -112.5t-113 -75.5t-134.5 -27q-61 0 -118.5 21t-102.5 58l-64 -63z
M169 162l389 386q-35 31 -80.5 48.5t-93.5 17.5q-54 0 -104 -21.5t-87.5 -60.5t-58.5 -90.5t-21 -108.5q0 -35 11.5 -80.5t44.5 -90.5zM602 500l-389 -386q35 -29 79.5 -45t91.5 -16q54 0 104 21.5t87.5 60t58.5 90t21 108.5q0 46 -14 89t-39 78z" />
    <glyph glyph-name="Ugrave" unicode="&#xd9;" horiz-adv-x="620" 
d="M65 235v432h71v-434q0 -25 9 -54t30 -55.5t55.5 -45.5t79.5 -19q26 0 55.5 9t55.5 31t44.5 56.5t18.5 77.5v434h71v-432q0 -49 -19 -94t-53 -79t-79 -53t-94 -19q-50 0 -95 19t-78.5 53t-52.5 79t-19 94zM402 748v-70l-201 51v70z" />
    <glyph glyph-name="Uacute" unicode="&#xda;" horiz-adv-x="620" 
d="M65 235v432h71v-434q0 -25 9 -54t30 -55.5t55.5 -45.5t79.5 -19q26 0 55.5 9t55.5 31t44.5 56.5t18.5 77.5v434h71v-432q0 -49 -19 -94t-53 -79t-79 -53t-94 -19q-50 0 -95 19t-78.5 53t-52.5 79t-19 94zM237 678v70l201 51v-70z" />
    <glyph glyph-name="Ucircumflex" unicode="&#xdb;" horiz-adv-x="620" 
d="M65 235v432h71v-434q0 -25 9 -54t30 -55.5t55.5 -45.5t79.5 -19q26 0 55.5 9t55.5 31t44.5 56.5t18.5 77.5v434h71v-432q0 -49 -19 -94t-53 -79t-79 -53t-94 -19q-50 0 -95 19t-78.5 53t-52.5 79t-19 94zM310 799l157 -87l-32 -48l-125 67l-125 -67l-32 48z" />
    <glyph glyph-name="Udieresis" unicode="&#xdc;" horiz-adv-x="620" 
d="M65 235v432h71v-434q0 -25 9 -54t30 -55.5t55.5 -45.5t79.5 -19q26 0 55.5 9t55.5 31t44.5 56.5t18.5 77.5v434h71v-432q0 -49 -19 -94t-53 -79t-79 -53t-94 -19q-50 0 -95 19t-78.5 53t-52.5 79t-19 94zM163 716q0 20 15 34t34 14q21 0 35 -14t14 -34t-14 -34t-35 -14
q-20 0 -34.5 14t-14.5 34zM365 716q0 20 14 34t33 14q21 0 35.5 -14t14.5 -34t-13.5 -34t-34.5 -14q-20 0 -34.5 14t-14.5 34z" />
    <glyph glyph-name="Yacute" unicode="&#xdd;" horiz-adv-x="677" 
d="M304 0v286l-304 381h93l251 -313l248 313h85l-303 -380v-287h-70zM239 678v70l201 51v-70z" />
    <glyph glyph-name="Thorn" unicode="&#xde;" horiz-adv-x="630" 
d="M138 0h-70v667h70v-120h271q53 0 103 -26t77 -74.5t27 -100.5q0 -39 -15 -75.5t-43 -65t-65.5 -44.5t-79.5 -16h-275v-145zM138 478v-264h267q24 0 54 12t54 44t24 76q0 45 -24.5 76.5t-54.5 43.5t-54 12h-266z" />
    <glyph glyph-name="germandbls" unicode="&#xdf;" horiz-adv-x="1207" 
d="M708 437l460 -134q4 -15 4 -38q0 -57 -20 -108.5t-57 -90t-88.5 -60.5t-111.5 -22q-103 0 -172.5 54.5t-101.5 150.5l71 23q9 -38 37 -75.5t70.5 -60t95.5 -22.5q35 0 71 11t65 36.5t47.5 63.5t18.5 85l-461 133q-3 11 -3 28q0 55 20 104.5t56.5 87.5t87 59t108.5 21
q60 0 111 -23t90 -64t55 -94l-73 -21q-23 57 -70 94.5t-113 37.5q-52 0 -98.5 -24t-72 -67t-26.5 -85zM118 437l460 -134q4 -15 4 -38q0 -57 -20 -108.5t-57 -90t-88.5 -60.5t-111.5 -22q-103 0 -172.5 54.5t-101.5 150.5l71 23q9 -38 37 -75.5t70.5 -60t95.5 -22.5
q35 0 71 11t65 36.5t47.5 63.5t18.5 85l-461 133q-3 11 -3 28q0 55 20 104.5t56.5 87.5t87 59t108.5 21q60 0 111 -23t90 -64t55 -94l-73 -21q-23 57 -70 94.5t-113 37.5q-52 0 -98.5 -24t-72 -67t-26.5 -85z" />
    <glyph glyph-name="agrave" unicode="&#xe0;" horiz-adv-x="695" 
d="M81 0h-80l344 676h4l348 -676h-81l-87 170h-362zM493 239l-146 290l-145 -290h291zM419 756v-70l-201 51v70z" />
    <glyph glyph-name="aacute" unicode="&#xe1;" horiz-adv-x="695" 
d="M81 0h-80l344 676h4l348 -676h-81l-87 170h-362zM493 239l-146 290l-145 -290h291zM267 678v70l201 51v-70z" />
    <glyph glyph-name="acircumflex" unicode="&#xe2;" horiz-adv-x="695" 
d="M81 0h-80l344 676h4l348 -676h-81l-87 170h-362zM493 239l-146 290l-145 -290h291zM344 801l157 -87l-32 -48l-125 67l-125 -67l-32 48z" />
    <glyph glyph-name="atilde" unicode="&#xe3;" horiz-adv-x="695" 
d="M81 0h-80l344 676h4l348 -676h-81l-87 170h-362zM493 239l-146 290l-145 -290h291zM277 797q27 -9 72 -30q42 -20 68 -29q14 0 22 11t8 30h57q0 -46 -26.5 -74.5t-67.5 -28.5q-27 9 -72 30q-48 22 -68 29q-14 0 -22 -11t-8 -30h-57q0 46 26.5 74.5t67.5 28.5z" />
    <glyph glyph-name="adieresis" unicode="&#xe4;" horiz-adv-x="695" 
d="M81 0h-80l344 676h4l348 -676h-81l-87 170h-362zM493 239l-146 290l-145 -290h291zM477 649q0 20 14 34t33 14q21 0 35.5 -14t14.5 -34t-13.5 -34t-34.5 -14q-20 0 -34.5 14t-14.5 34zM116 649q0 20 14 34t33 14q21 0 35.5 -14t14.5 -34t-13.5 -34t-34.5 -14
q-20 0 -34.5 14t-14.5 34z" />
    <glyph glyph-name="aring" unicode="&#xe5;" horiz-adv-x="695" 
d="M557 590q0 -49 -21.5 -92t-58.5 -72l220 -426h-81l-87 170h-362l-86 -170h-80l216 425q-37 28 -58.5 72t-21.5 93q0 31 11 66.5t40.5 71t73 54t85.5 18.5q31 0 66.5 -11t71 -40.5t54 -73t18.5 -85.5zM346 446q31 0 63.5 15.5t54.5 53t22 75.5q0 60 -41.5 102.5
t-97.5 42.5t-97.5 -43t-41.5 -102q0 -38 22 -75.5t53.5 -53t62.5 -15.5zM417 391h-140l-75 -152h291z" />
    <glyph glyph-name="ae" unicode="&#xe6;" horiz-adv-x="946" 
d="M20 0l416 667h459v-69h-385v-224h321v-70h-321v-231h380v-73h-450v170h-231l-105 -170h-84zM252 239h188v306z" />
    <glyph glyph-name="ccedilla" unicode="&#xe7;" horiz-adv-x="639" 
d="M347 -14l-5 1q-63 13 -119.5 43.5t-99 76t-66 103.5t-23.5 123q0 70 27.5 134.5t75.5 112.5t112.5 75.5t134.5 27.5q73 0 139.5 -28t112.5 -79l-54 -54q-36 41 -88 65t-109 24q-54 0 -104 -21.5t-87.5 -60t-58.5 -89.5t-21 -107t21 -107t58.5 -89t87.5 -59.5t104 -21.5
q56 0 107 23t89 64l53 -53q-77 -81 -189 -101q20 -28 20 -67q0 -23 -12 -51.5t-43 -49.5t-68 -21q-23 0 -46 9.5t-41 26.5l41 40q19 -19 46 -19t46.5 19t19.5 46q0 25 -17 41.5t-44 22.5z" />
    <glyph glyph-name="egrave" unicode="&#xe8;" horiz-adv-x="450" 
d="M68 0v667h370v-69h-300v-224h256v-69h-256v-236h295v-69h-365zM341 756v-70l-201 51v70z" />
    <glyph glyph-name="eacute" unicode="&#xe9;" horiz-adv-x="450" 
d="M68 0v667h370v-69h-300v-224h256v-69h-256v-236h295v-69h-365zM165 686v70l201 51v-70z" />
    <glyph glyph-name="ecircumflex" unicode="&#xea;" horiz-adv-x="450" 
d="M68 0v667h370v-69h-300v-224h256v-69h-256v-236h295v-69h-365zM250 819l157 -87l-32 -48l-125 67l-125 -67l-32 48z" />
    <glyph glyph-name="edieresis" unicode="&#xeb;" horiz-adv-x="450" 
d="M68 0v667h370v-69h-300v-224h256v-69h-256v-236h295v-69h-365zM105 751q0 20 15 34t34 14q21 0 35 -14t14 -34t-14 -34t-35 -14q-20 0 -34.5 14t-14.5 34zM307 751q0 20 14 34t33 14q21 0 35.5 -14t14.5 -34t-13.5 -34t-34.5 -14q-20 0 -34.5 14t-14.5 34z" />
    <glyph glyph-name="igrave" unicode="&#xec;" horiz-adv-x="250" 
d="M162 69h63v-69h-200v69h67v529h-67v69h200v-69h-63v-529zM226 756v-70l-201 51v70z" />
    <glyph glyph-name="iacute" unicode="&#xed;" horiz-adv-x="250" 
d="M162 69h63v-69h-200v69h67v529h-67v69h200v-69h-63v-529zM25 684v70l201 51v-70z" />
    <glyph glyph-name="icircumflex" unicode="&#xee;" horiz-adv-x="250" 
d="M162 69h63v-69h-200v69h67v529h-67v69h200v-69h-63v-529zM125 815l157 -87l-32 -48l-125 67l-125 -67l-32 48z" />
    <glyph glyph-name="idieresis" unicode="&#xef;" horiz-adv-x="250" 
d="M162 69h63v-69h-200v69h67v529h-67v69h200v-69h-63v-529zM174 745q0 20 14 34t33 14q21 0 35.5 -14t14.5 -34t-13.5 -34t-34.5 -14q-20 0 -34.5 14t-14.5 34zM-17 745q0 20 14 34t33 14q21 0 35.5 -14t14.5 -34t-13.5 -34t-34.5 -14q-20 0 -34.5 14t-14.5 34z" />
    <glyph glyph-name="eth" unicode="&#xf0;" horiz-adv-x="608" 
d="M68 0v315h-35v62h35v290h177q67 0 128.5 -26t107.5 -72t72 -107.5t26 -128.5t-26 -128t-72 -107t-107.5 -72t-128.5 -26h-177zM352 315h-214v-246h106q53 0 100.5 20.5t83 57t55 85t19.5 101.5q0 39 -13 83.5t-49 89.5t-89.5 68.5t-106.5 23.5h-106v-221h214v-62z" />
    <glyph glyph-name="ntilde" unicode="&#xf1;" horiz-adv-x="739" 
d="M670 667v-679l-532 517v-505h-70v676l532 -515v506h70zM307 763q27 -9 72 -30q42 -20 68 -29q14 0 22 11t8 30h57q0 -46 -26.5 -74.5t-67.5 -28.5q-27 9 -72 30q-48 22 -68 29q-14 0 -22 -11t-8 -30h-57q0 46 26.5 74.5t67.5 28.5z" />
    <glyph glyph-name="ograve" unicode="&#xf2;" horiz-adv-x="577" 
d="M288 679q53 0 101 -20.5t84.5 -56.5t57 -84.5t20.5 -101.5q0 -39 -13.5 -82.5t-51 -88t-91.5 -67.5t-107 -23t-101 20.5t-84 56.5t-56.5 84t-20.5 100q0 53 20.5 101.5t56.5 84.5t84 56.5t101 20.5zM288 613q-38 0 -72.5 -15.5t-61 -42.5t-41 -63t-14.5 -76q0 -29 10 -62
t36.5 -66t65.5 -50t77 -17q28 0 60 10t64 37.5t48.5 67.5t16.5 80q0 50 -25 97.5t-70.5 73.5t-93.5 26zM503 67v-67h-429v67h429zM374 788v-70l-201 51v70z" />
    <glyph glyph-name="oacute" unicode="&#xf3;" horiz-adv-x="577" 
d="M201 720v70l201 51v-70zM288 679q53 0 101 -20.5t84.5 -56.5t57 -84.5t20.5 -101.5q0 -39 -13.5 -82.5t-51 -88t-91.5 -67.5t-107 -23t-101 20.5t-84 56.5t-56.5 84t-20.5 100q0 53 20.5 101.5t56.5 84.5t84 56.5t101 20.5zM288 613q-38 0 -72.5 -15.5t-61 -42.5t-41 -63
t-14.5 -76q0 -29 10 -62t36.5 -66t65.5 -50t77 -17q28 0 60 10t64 37.5t48.5 67.5t16.5 80q0 50 -25 97.5t-70.5 73.5t-93.5 26zM503 67v-67h-429v67h429z" />
    <glyph glyph-name="ocircumflex" unicode="&#xf4;" horiz-adv-x="577" 
d="M286 833l157 -87l-32 -48l-125 67l-125 -67l-32 48zM288 679q53 0 101 -20.5t84.5 -56.5t57 -84.5t20.5 -101.5q0 -39 -13.5 -82.5t-51 -88t-91.5 -67.5t-107 -23t-101 20.5t-84 56.5t-56.5 84t-20.5 100q0 53 20.5 101.5t56.5 84.5t84 56.5t101 20.5zM288 613
q-38 0 -72.5 -15.5t-61 -42.5t-41 -63t-14.5 -76q0 -29 10 -62t36.5 -66t65.5 -50t77 -17q28 0 60 10t64 37.5t48.5 67.5t16.5 80q0 50 -25 97.5t-70.5 73.5t-93.5 26zM503 67v-67h-429v67h429z" />
    <glyph glyph-name="otilde" unicode="&#xf5;" horiz-adv-x="577" 
d="M211 821q27 -9 72 -30q42 -20 68 -29q14 0 22 11t8 30h57q0 -46 -26.5 -74.5t-67.5 -28.5q-27 9 -72 30q-48 22 -68 29q-14 0 -22 -11t-8 -30h-57q0 46 26.5 74.5t67.5 28.5zM288 679q53 0 101 -20.5t84.5 -56.5t57 -84.5t20.5 -101.5q0 -39 -13.5 -82.5t-51 -88
t-91.5 -67.5t-107 -23t-101 20.5t-84 56.5t-56.5 84t-20.5 100q0 53 20.5 101.5t56.5 84.5t84 56.5t101 20.5zM288 613q-38 0 -72.5 -15.5t-61 -42.5t-41 -63t-14.5 -76q0 -29 10 -62t36.5 -66t65.5 -50t77 -17q28 0 60 10t64 37.5t48.5 67.5t16.5 80q0 50 -25 97.5
t-70.5 73.5t-93.5 26zM503 67v-67h-429v67h429z" />
    <glyph glyph-name="odieresis" unicode="&#xf6;" horiz-adv-x="577" 
d="M288 679q53 0 101 -20.5t84.5 -56.5t57 -84.5t20.5 -101.5q0 -39 -13.5 -82.5t-51 -88t-91.5 -67.5t-107 -23t-101 20.5t-84 56.5t-56.5 84t-20.5 100q0 53 20.5 101.5t56.5 84.5t84 56.5t101 20.5zM288 613q-38 0 -72.5 -15.5t-61 -42.5t-41 -63t-14.5 -76q0 -29 10 -62
t36.5 -66t65.5 -50t77 -17q28 0 60 10t64 37.5t48.5 67.5t16.5 80q0 50 -25 97.5t-70.5 73.5t-93.5 26zM503 67v-67h-429v67h429zM87 745q0 20 14 34t33 14q21 0 35.5 -14t14.5 -34t-13.5 -34t-34.5 -14q-20 0 -34.5 14t-14.5 34zM389 745q0 20 14 34t33 14q21 0 35.5 -14
t14.5 -34t-13.5 -34t-34.5 -14q-20 0 -34.5 14t-14.5 34z" />
    <glyph glyph-name="divide" unicode="&#xf7;" horiz-adv-x="558" 
d="M328 128q0 -19 -14.5 -33.5t-33.5 -14.5q-20 0 -34 14.5t-14 33.5q0 21 14 35t34 14q19 0 33.5 -14.5t14.5 -34.5zM507 265h-456v62h456v-62zM328 463q0 -21 -14 -35t-34 -14q-19 0 -33 14t-14 35q0 20 14 34t33 14q20 0 34 -14t14 -34z" />
    <glyph glyph-name="oslash" unicode="&#xf8;" horiz-adv-x="577" 
d="M501 674l44 -44l-51 -50q27 -34 42 -76.5t15 -87.5q0 -39 -13.5 -82.5t-51 -88t-91.5 -67.5t-107 -23q-47 0 -90 16t-77 44l-57 -56l-44 44l58 57q-52 68 -52 156q0 53 20.5 101.5t56.5 84.5t84 56.5t101 20.5q89 0 162 -55zM477 416q0 29 -9.5 59.5t-25.5 53.5
l-272 -266q50 -42 118 -42q28 0 60 10t64 37.5t48.5 67.5t16.5 80zM288 613q-38 0 -72.5 -15.5t-61 -42.5t-41 -63t-14.5 -76q0 -22 6 -49.5t24 -56.5l271 265q-22 17 -52.5 27.5t-59.5 10.5zM503 67v-67h-429v67h429z" />
    <glyph glyph-name="ugrave" unicode="&#xf9;" horiz-adv-x="665" 
d="M65 246v421h71v-421q0 -29 11 -61t36 -60t63 -47t84 -19q45 0 92.5 24t75 68t27.5 91v425h70v-421q0 -50 -20.5 -97t-57.5 -83t-85.5 -56t-101.5 -20q-54 0 -103 20t-85 55t-56.5 82t-20.5 99zM427 748v-70l-201 51v70z" />
    <glyph glyph-name="uacute" unicode="&#xfa;" horiz-adv-x="665" 
d="M65 246v421h71v-421q0 -29 11 -61t36 -60t63 -47t84 -19q45 0 92.5 24t75 68t27.5 91v425h70v-421q0 -50 -20.5 -97t-57.5 -83t-85.5 -56t-101.5 -20q-54 0 -103 20t-85 55t-56.5 82t-20.5 99zM253 678v70l201 51v-70z" />
    <glyph glyph-name="ucircumflex" unicode="&#xfb;" horiz-adv-x="665" 
d="M65 246v421h71v-421q0 -29 11 -61t36 -60t63 -47t84 -19q45 0 92.5 24t75 68t27.5 91v425h70v-421q0 -50 -20.5 -97t-57.5 -83t-85.5 -56t-101.5 -20q-54 0 -103 20t-85 55t-56.5 82t-20.5 99zM331 799l157 -87l-32 -48l-125 67l-125 -67l-32 48z" />
    <glyph glyph-name="udieresis" unicode="&#xfc;" horiz-adv-x="665" 
d="M65 246v421h71v-421q0 -29 11 -61t36 -60t63 -47t84 -19q45 0 92.5 24t75 68t27.5 91v425h70v-421q0 -50 -20.5 -97t-57.5 -83t-85.5 -56t-101.5 -20q-54 0 -103 20t-85 55t-56.5 82t-20.5 99zM182 715q0 20 15 34t34 14q21 0 35 -14t14 -34t-14 -34t-35 -14
q-20 0 -34.5 14t-14.5 34zM384 715q0 20 14 34t33 14q21 0 35.5 -14t14.5 -34t-13.5 -34t-34.5 -14q-20 0 -34.5 14t-14.5 34z" />
    <glyph glyph-name="yacute" unicode="&#xfd;" horiz-adv-x="756" 
d="M343 0v236l-345 431h91l292 -362l287 362h88l-343 -430v-237h-70zM283 678v70l201 51v-70z" />
    <glyph glyph-name="thorn" unicode="&#xfe;" horiz-adv-x="552" 
d="M138 0h-70v667h70v-120h193q53 0 103 -26t77 -74.5t27 -100.5q0 -39 -15 -75.5t-43 -65t-65.5 -44.5t-79.5 -16h-197v-145zM138 478v-264h189q32 0 64 16.5t50.5 48.5t18.5 67q0 45 -24.5 76.5t-55 43.5t-54.5 12h-188z" />
    <glyph glyph-name="ydieresis" unicode="&#xff;" horiz-adv-x="756" 
d="M343 0v236l-345 431h91l292 -362l287 362h88l-343 -430v-237h-70zM225 693q0 20 15 34t34 14q21 0 35 -14t14 -34t-14 -34t-35 -14q-20 0 -34.5 14t-14.5 34zM427 693q0 20 14 34t33 14q21 0 35.5 -14t14.5 -34t-13.5 -34t-34.5 -14q-20 0 -34.5 14t-14.5 34z" />
    <glyph glyph-name="dotlessi" unicode="&#x131;" horiz-adv-x="250" 
d="M162 69h63v-69h-200v69h67v529h-67v69h200v-69h-63v-529z" />
    <glyph glyph-name="Lslash" unicode="&#x141;" horiz-adv-x="573" 
d="M148 67h352v141h68v-208h-490v179l-24 -24l-44 44l68 68v400h70v-330l177 177l44 -44l-221 -221v-182z" />
    <glyph glyph-name="lslash" unicode="&#x142;" horiz-adv-x="487" 
d="M148 67h250v141h69v-208h-389v179l-24 -24l-44 44l68 68v400h70v-330l177 177l44 -44l-221 -221v-182z" />
    <glyph glyph-name="OE" unicode="&#x152;" horiz-adv-x="968" 
d="M467 0q-30 -10 -93 -10q-70 0 -133 26t-109 73t-72 110.5t-26 133.5t26 133.5t72 110.5t109 73t133 26q50 0 140 -9h448v-69h-377q49 -39 81.5 -100.5t40.5 -123.5h181v-69h-180q0 -51 -35 -124t-86 -112h370v-69h-490zM374 607q-55 0 -103 -20.5t-83.5 -58t-55 -88
t-19.5 -107.5t19.5 -107.5t55 -87.5t83.5 -57.5t103 -20.5t103 20.5t83.5 57.5t55 87.5t19.5 107.5t-19.5 107.5t-55 88t-83.5 58t-103 20.5z" />
    <glyph glyph-name="oe" unicode="&#x153;" horiz-adv-x="970" 
d="M467 0q-30 -10 -93 -10q-70 0 -133 26t-109 73t-72 110.5t-26 133.5t26 133.5t72 110.5t109 73t133 26q50 0 140 -9h448v-69h-377q49 -39 81.5 -100.5t40.5 -123.5h181v-69h-180q0 -51 -35 -124t-86 -112h370v-69h-490zM374 607q-55 0 -103 -20.5t-83.5 -58t-55 -88
t-19.5 -107.5t19.5 -107.5t55 -87.5t83.5 -57.5t103 -20.5t103 20.5t83.5 57.5t55 87.5t19.5 107.5t-19.5 107.5t-55 88t-83.5 58t-103 20.5z" />
    <glyph glyph-name="Scaron" unicode="&#x160;" horiz-adv-x="583" 
d="M294 -16q-61 0 -109.5 21.5t-84 62t-50.5 98.5l70 18q13 -57 61 -94.5t111 -37.5q59 0 97.5 23.5t58.5 62.5t23 94l-429 159l-1 53q0 43 18 86.5t50.5 78t78 54.5t96.5 20q54 0 107.5 -21.5t90 -64t49.5 -91.5l-72 -17q-8 36 -36.5 68t-65 45t-71.5 13q-68 0 -117 -49
t-56 -123l427 -158q4 -19 4 -51q0 -48 -18 -93t-51 -80.5t-80 -56t-101 -20.5zM286 694l-157 87l32 48l125 -67l125 67l32 -48z" />
    <glyph glyph-name="scaron" unicode="&#x161;" horiz-adv-x="615" 
d="M118 407l460 -104q4 -15 4 -38q0 -56 -20 -108t-57 -90.5t-89 -60.5t-112 -22q-102 0 -172 55t-102 150l72 23q9 -38 37 -75.5t70 -60t95 -22.5q35 0 71.5 11t65.5 36.5t47.5 63.5t18.5 85l-461 103q-3 15 -3 28q0 55 20 104.5t56.5 87.5t87 59t108.5 21q60 0 111 -23
t90 -64t55 -94l-73 -21q-23 57 -70 94.5t-113 37.5q-52 0 -98.5 -24t-72 -67t-26.5 -85zM313 665l-157 87l32 48l125 -67l125 67l32 -48z" />
    <glyph glyph-name="Ydieresis" unicode="&#x178;" horiz-adv-x="677" 
d="M304 0v286l-304 381h93l251 -313l248 313h85l-303 -380v-287h-70zM191 697q0 20 15 34t34 14q21 0 35 -14t14 -34t-14 -34t-35 -14q-20 0 -34.5 14t-14.5 34zM393 697q0 20 14 34t33 14q21 0 35.5 -14t14.5 -34t-13.5 -34t-34.5 -14q-20 0 -34.5 14t-14.5 34z" />
    <glyph glyph-name="Zcaron" unicode="&#x17d;" horiz-adv-x="572" 
d="M29 430v237h538l-426 -598h337v168h69v-237h-542l426 598h-333v-168h-69zM281 676l-157 87l32 48l125 -67l125 67l32 -48z" />
    <glyph glyph-name="zcaron" unicode="&#x17e;" horiz-adv-x="542" 
d="M29 492v175h508l-403 -602h312v108h71v-173h-512l407 602h-312v-110h-71zM274 677l-157 87l32 48l125 -67l125 67l32 -48z" />
    <glyph glyph-name="florin" unicode="&#x192;" horiz-adv-x="464" 
d="M144 302h-105v74h117l21 123q31 181 157 181q62 0 113 -29l-28 -63q-11 9 -36.5 18t-40.5 9q-30 0 -50 -21t-27 -55l-32 -163h119v-74h-131l-55 -328q-13 -79 -34 -120t-55 -60t-86 -19q-10 0 -31 3t-32 7l28 60q20 -8 51 -8q28 0 47 21.5t25 58.5z" />
    <glyph glyph-name="uni02BB" unicode="&#x2bb;" horiz-adv-x="181" 
d="M126 492h-71v132l71 71v-203z" />
    <glyph glyph-name="afii57929" unicode="&#x2bc;" horiz-adv-x="181" 
d="M127 667v-132l-71 -71v203h71z" />
    <glyph glyph-name="circumflex" unicode="&#x2c6;" horiz-adv-x="335" 
d="M172 815l157 -87l-32 -48l-125 67l-125 -67l-32 48z" />
    <glyph glyph-name="caron" unicode="&#x2c7;" horiz-adv-x="335" 
d="M167 683l-157 87l32 48l125 -67l125 67l32 -48z" />
    <glyph glyph-name="uni02C9" unicode="&#x2c9;" horiz-adv-x="335" 
d="M45 716v74h241v-74h-241z" />
    <glyph glyph-name="breve" unicode="&#x2d8;" horiz-adv-x="335" 
d="M32 820q42 -30 73.5 -40.5t61.5 -10.5q68 0 135 51v-76q-20 -20 -57.5 -35.5t-77.5 -15.5q-43 0 -81.5 15t-53.5 36v76z" />
    <glyph glyph-name="dotaccent" unicode="&#x2d9;" horiz-adv-x="335" 
d="M114 738q0 23 16.5 39t38.5 16q24 0 40 -16t16 -39t-16 -39.5t-39 -16.5q-24 0 -40 16t-16 40z" />
    <glyph glyph-name="ring" unicode="&#x2da;" horiz-adv-x="342" 
d="M61 799q0 21 11 46.5t39 44.5t60 19q21 0 46.5 -11t44.5 -39t19 -60q0 -20 -11 -46t-39 -45t-60 -19t-60 19t-39 45t-11 46zM171 852q-21 0 -37 -16t-16 -37t16 -37t37 -16t38 16t17 37t-16.5 37t-38.5 16z" />
    <glyph glyph-name="ogonek" unicode="&#x2db;" horiz-adv-x="342" 
d="M206 0l-95 -142q4 -21 20.5 -36t37.5 -15q25 0 42 16t17 36h57q0 -36 -19 -63.5t-47 -38t-51 -10.5q-50 0 -85 33.5t-35 83.5l91 136h67z" />
    <glyph glyph-name="tilde" unicode="&#x2dc;" horiz-adv-x="335" 
d="M97 797q27 -9 72 -30q42 -20 68 -29q14 0 22 11t8 30h57q0 -46 -26.5 -74.5t-67.5 -28.5q-27 9 -72 30q-48 22 -68 29q-14 0 -22 -11t-8 -30h-57q0 46 26.5 74.5t67.5 28.5z" />
    <glyph glyph-name="hungarumlaut" unicode="&#x2dd;" horiz-adv-x="335" 
d="M143 686v38l-128 -38v76l171 51v-38l128 38v-76z" />
    <glyph glyph-name="gravecomb" unicode="&#x300;" 
d="M-202 788v-70l-201 51v70z" />
    <glyph glyph-name="acutecomb" unicode="&#x301;" 
d="M-375 720v70l201 51v-70z" />
    <glyph glyph-name="uni0302" unicode="&#x302;" 
d="M-290 833l157 -87l-32 -48l-125 67l-125 -67l-32 48z" />
    <glyph glyph-name="tildecomb" unicode="&#x303;" 
d="M-365 821q27 -9 72 -30q42 -20 68 -29q14 0 22 11t8 30h57q0 -46 -26.5 -74.5t-67.5 -28.5q-27 9 -72 30q-48 22 -68 29q-14 0 -22 -11t-8 -30h-57q0 46 26.5 74.5t67.5 28.5z" />
    <glyph glyph-name="uni0307" unicode="&#x307;" 
d="M-193 649q0 20 14 34t33 14q21 0 35.5 -14t14.5 -34t-13.5 -34t-34.5 -14q-20 0 -34.5 14t-14.5 34z" />
    <glyph glyph-name="uni0308" unicode="&#x308;" 
d="M-317 745q0 20 15 34t34 14q21 0 35 -14t14 -34t-14 -34t-35 -14q-20 0 -34.5 14t-14.5 34zM-115 745q0 20 14 34t33 14q21 0 35.5 -14t14.5 -34t-13.5 -34t-34.5 -14q-20 0 -34.5 14t-14.5 34z" />
    <glyph glyph-name="uni030A" unicode="&#x30a;" 
d="M-280 690q0 21 11 46.5t39 44.5t60 19q21 0 46.5 -11t44.5 -39t19 -60q0 -20 -11 -46t-39 -45t-60 -19t-60 19t-39 45t-11 46zM-170 743q-21 0 -37 -16t-16 -37t16 -37t37 -16t38 16t17 37t-16.5 37t-38.5 16z" />
    <glyph glyph-name="uni030C" unicode="&#x30c;" 
d="M-267 677l-157 87l32 48l125 -67l125 67l32 -48z" />
    <glyph glyph-name="uni0327" unicode="&#x327;" 
d="M-203 0v63h61v-51l100 -93q-1 -36 -22 -66t-49.5 -41.5t-51.5 -11.5q-36 0 -67 21t-43.5 49.5t-12.5 51.5h58q0 -16 7.5 -32.5t24 -25.5t33.5 -9q19 0 37.5 10.5t28.5 38.5z" />
    <glyph glyph-name="Delta" unicode="&#x394;" horiz-adv-x="613" 
d="M25 0v47l244 653h79l241 -653v-47h-564zM101 60h410l-205 561z" />
    <glyph glyph-name="Omega" unicode="&#x3a9;" horiz-adv-x="681" 
d="M195 59q-56 56 -93 139.5t-37 178.5q0 73 20.5 135t58 105.5t89 67t109.5 23.5q61 0 111.5 -24.5t86.5 -69.5t55 -105.5t19 -129.5q0 -97 -37.5 -181.5t-93.5 -138.5h149v-59h-230v46q42 34 77.5 92t49.5 118.5t14 112.5q0 56 -13.5 107t-40 89t-64 60t-83.5 22
q-44 0 -82.5 -21t-65.5 -59t-42 -90t-15 -111q0 -97 41.5 -186t99.5 -134v-46h-230v59h147z" />
    <glyph glyph-name="mu" unicode="&#x3bc;" horiz-adv-x="525" 
d="M458 0h-61v70q-43 -80 -135 -80q-86 0 -124 66v-306h-66v790h76v-349q0 -25 6 -49.5t22 -44.5t41 -29.5t48 -9.5t48 9.5t41 29.5t22 44.5t6 49.5v349h76v-540z" />
    <glyph glyph-name="pi" unicode="&#x3c0;" horiz-adv-x="561" 
d="M533 481h-80v-327q0 -107 14 -154h-69q-17 27 -17 147v334h-174q-4 -114 -25 -263.5t-46 -217.5h-70q26 79 45.5 220t23.5 261q-77 0 -109 -12l-11 47q42 24 140 24h385z" />
    <glyph glyph-name="uni2007" unicode="&#x2007;" horiz-adv-x="553" 
 />
    <glyph glyph-name="uni2008" unicode="&#x2008;" horiz-adv-x="183" 
 />
    <glyph glyph-name="uni200B" unicode="&#x200b;" horiz-adv-x="0" 
 />
    <glyph glyph-name="endash" unicode="&#x2013;" horiz-adv-x="446" 
d="M414 362v-70h-381v70h381z" />
    <glyph glyph-name="emdash" unicode="&#x2014;" horiz-adv-x="658" 
d="M657 362v-70h-657v70h657z" />
    <glyph glyph-name="quoteleft" unicode="&#x2018;" horiz-adv-x="181" 
d="M126 492h-71v132l71 71v-203z" />
    <glyph glyph-name="quoteright" unicode="&#x2019;" horiz-adv-x="181" 
d="M127 667v-132l-71 -71v203h71z" />
    <glyph glyph-name="quotesinglbase" unicode="&#x201a;" horiz-adv-x="181" 
d="M56 -70v203h71v-132q-38 -35 -71 -71z" />
    <glyph glyph-name="quotedblleft" unicode="&#x201c;" horiz-adv-x="312" 
d="M123 492h-71v132l71 71v-203zM264 492h-71v132l71 71v-203z" />
    <glyph glyph-name="quotedblright" unicode="&#x201d;" horiz-adv-x="312" 
d="M265 667v-132l-71 -71v203h71zM124 667v-132l-71 -71v203h71z" />
    <glyph glyph-name="quotedblbase" unicode="&#x201e;" horiz-adv-x="312" 
d="M262 131v-132l-71 -71v203h71zM121 131v-132l-71 -71v203h71z" />
    <glyph glyph-name="dagger" unicode="&#x2020;" horiz-adv-x="456" 
d="M191 -21v417h-173v68h173v203h72v-203h174v-68h-174v-417h-72z" />
    <glyph glyph-name="daggerdbl" unicode="&#x2021;" horiz-adv-x="456" 
d="M192 -42v200h-174v66h174v174h-174v66h174v203h70v-203h175v-66h-175v-174h175v-66h-175v-200h-70z" />
    <glyph glyph-name="bullet" unicode="&#x2022;" horiz-adv-x="324" 
d="M166 468q56 0 97.5 -42.5t41.5 -99.5q0 -58 -42 -100t-100 -42t-100 42t-42 100q0 60 42 101t103 41z" />
    <glyph glyph-name="ellipsis" unicode="&#x2026;" horiz-adv-x="549" 
d="M127 0h-71v133h71v-133zM310 0h-71v133h71v-133zM493 0h-71v133h71v-133z" />
    <glyph glyph-name="perthousand" unicode="&#x2030;" horiz-adv-x="820" 
d="M299 551q0 -41 -22 -75t-52.5 -47t-55.5 -13t-55.5 13t-52.5 45.5t-22 71.5q0 53 38 90.5t92 37.5q25 0 55 -12.5t52.5 -43.5t22.5 -67zM790 126q0 -41 -22 -75t-52.5 -47t-55.5 -13t-55.5 13t-52.5 45.5t-22 71.5q0 53 38 90.5t92 37.5q25 0 55 -12.5t52.5 -43.5
t22.5 -67zM504 126q0 -41 -22 -75t-52.5 -47t-55.5 -13t-55.5 13t-52.5 45.5t-22 71.5q0 53 38 90.5t92 37.5q25 0 55 -12.5t52.5 -43.5t22.5 -67zM60 0l352 667h71l-352 -667h-71zM451 119q0 32 -23 55t-54 23t-53.5 -22.5t-22.5 -53.5t22.5 -53.5t53.5 -22.5
q30 0 53.5 22.5t23.5 51.5zM246 544q0 32 -23 55t-54 23t-53.5 -22.5t-22.5 -53.5t22.5 -53.5t53.5 -22.5q30 0 53.5 22.5t23.5 51.5zM737 119q0 32 -23 55t-54 23t-53.5 -22.5t-22.5 -53.5t22.5 -53.5t53.5 -22.5q30 0 53.5 22.5t23.5 51.5z" />
    <glyph glyph-name="guilsinglleft" unicode="&#x2039;" horiz-adv-x="246" 
d="M169 519l59 -21l-127 -185l127 -184l-60 -21l-136 205z" />
    <glyph glyph-name="guilsinglright" unicode="&#x203a;" horiz-adv-x="247" 
d="M19 498l59 21l137 -206l-136 -205l-60 21l127 184z" />
    <glyph glyph-name="fraction" unicode="&#x2044;" horiz-adv-x="152" 
d="M-117 -16h-70l445 683h70z" />
    <glyph glyph-name="Euro" unicode="&#x20ac;" horiz-adv-x="662" 
d="M24 373v70h80q31 106 116 173t198 67q70 0 137 -27.5t104 -68.5q-2 -2 -20.5 -21t-25 -25t-8.5 -8q-32 36 -82.5 57t-103.5 21q-81 0 -142.5 -46t-89.5 -122h277v-70h-294l-2 -40l1 -30h295v-70h-281q26 -80 89 -128.5t147 -48.5q52 0 102.5 21t82.5 55l53 -53
q-39 -42 -105.5 -68.5t-133.5 -26.5q-58 0 -110 18.5t-93.5 52t-70.5 79.5t-43 99h-77v70h65l-1 30q0 27 2 40h-66z" />
    <glyph glyph-name="trademark" unicode="&#x2122;" horiz-adv-x="583" 
d="M270 424v250l133 -94l133 94v-250h-53v143l-81 -59l-79 59v-143h-53zM251 618h-84v-194h-54v194h-88v49h226v-49z" />
    <glyph glyph-name="uni2126" unicode="&#x2126;" horiz-adv-x="681" 
d="M195 59q-56 56 -93 139.5t-37 178.5q0 73 20.5 135t58 105.5t89 67t109.5 23.5q61 0 111.5 -24.5t86.5 -69.5t55 -105.5t19 -129.5q0 -97 -37.5 -181.5t-93.5 -138.5h149v-59h-230v46q42 34 77.5 92t49.5 118.5t14 112.5q0 56 -13.5 107t-40 89t-64 60t-83.5 22
q-44 0 -82.5 -21t-65.5 -59t-42 -90t-15 -111q0 -97 41.5 -186t99.5 -134v-46h-230v59h147z" />
    <glyph glyph-name="partialdiff" unicode="&#x2202;" horiz-adv-x="542" 
d="M100 719l-25 50q67 58 164 58q37 0 73 -13t66.5 -39.5t54 -67t38.5 -96.5t18 -106.5t3 -69.5q0 -95 -17 -176.5t-50 -140.5t-82 -91t-109 -32q-58 0 -99.5 29.5t-66 84.5t-24.5 129q0 59 16.5 109.5t46 86t68 54.5t81.5 19q45 0 81 -21t55 -44.5t26 -37.5l2 48
q0 75 -14.5 134.5t-40.5 99.5t-60.5 60t-72.5 20q-31 0 -67 -10.5t-65 -36.5zM239 54q26 0 54 14.5t52 49.5t42 90t23 127q-10 29 -33.5 58t-52.5 42.5t-56 13.5q-39 0 -76 -27.5t-57 -78.5t-20 -104q0 -85 34 -135t90 -50z" />
    <glyph glyph-name="uni2206" unicode="&#x2206;" horiz-adv-x="613" 
d="M25 0v47l244 653h79l241 -653v-47h-564zM101 60h410l-205 561z" />
    <glyph glyph-name="product" unicode="&#x220f;" horiz-adv-x="688" 
d="M662 632h-112v-882h-74v882h-265v-882h-73v882h-112v68h636v-68z" />
    <glyph glyph-name="summation" unicode="&#x2211;" horiz-adv-x="549" 
d="M528 -250h-505v52l261 420l-248 423v55h474v-68h-375l235 -406l-252 -408h410v-68z" />
    <glyph glyph-name="minus" unicode="&#x2212;" horiz-adv-x="558" 
d="M506 264h-455v62h455v-62z" />
    <glyph glyph-name="uni2219" unicode="&#x2219;" horiz-adv-x="574" 
d="M290 468q56 0 97.5 -42.5t41.5 -99.5q0 -58 -42 -100t-100 -42t-100 42t-42 100q0 60 42 101t103 41z" />
    <glyph glyph-name="radical" unicode="&#x221a;" horiz-adv-x="468" 
d="M448 700l-151 -700h-76l-108 329l-77 -27l-15 47l137 54l98 -316l128 613h64z" />
    <glyph glyph-name="infinity" unicode="&#x221e;" horiz-adv-x="777" 
d="M723 297q0 -43 -18.5 -77.5t-53 -57t-80.5 -22.5q-35 0 -75 20t-108 91q-62 -67 -104 -89t-82 -22q-37 0 -69.5 17.5t-55.5 52t-23 80.5q0 68 44.5 111.5t109.5 43.5q36 0 79.5 -22t104.5 -89q61 68 103.5 89.5t82.5 21.5q64 0 104.5 -42t40.5 -106zM667 293
q0 34 -16.5 58t-39.5 32.5t-41 8.5q-30 0 -67.5 -21.5t-81.5 -74.5q48 -53 81 -77t68 -24q20 0 43 10t38.5 34.5t15.5 53.5zM359 290q-52 62 -86.5 82t-66.5 20q-31 0 -54.5 -17.5t-32 -40.5t-8.5 -42q0 -31 16 -55t39.5 -33t43.5 -9q29 0 65 20t84 75z" />
    <glyph glyph-name="integral" unicode="&#x222b;" horiz-adv-x="354" 
d="M26 -186q22 -12 44 -12q12 0 24.5 5.5t20.5 15.5q35 42 35 187q0 90 -6.5 296t-6.5 297q0 81 12 127.5t27 65.5t22 25q16 16 40 24t48 8q6 0 23.5 -2.5t32.5 -10.5l-11 -52q-16 9 -37 9q-12 0 -26 -5t-23 -14q-42 -38 -42 -194q0 -83 7 -283.5t7 -294.5q0 -155 -43 -214
q-15 -23 -40.5 -34.5t-54.5 -11.5q-7 0 -28 3t-37 12z" />
    <glyph glyph-name="approxequal" unicode="&#x2248;" horiz-adv-x="569" 
d="M481 457l48 -22l-17 -32q-44 -80 -119 -80q-39 0 -100 31t-81 36t-32 5q-20 0 -41 -9t-43 -44l-11 -19l-48 23l16 30q46 82 124 82q39 0 99.5 -31t80.5 -36t32 -5q26 0 45 12.5t36 40.5zM486 278l48 -22l-17 -32q-21 -40 -51.5 -60t-66.5 -20q-39 0 -100 31t-81.5 36
t-32.5 5q-20 0 -41 -9t-43 -44l-11 -19l-47 23l15 30q20 40 52.5 61t71.5 21t99.5 -31t80.5 -36t32 -5q26 0 45 12.5t36 40.5z" />
    <glyph glyph-name="notequal" unicode="&#x2260;" horiz-adv-x="557" 
d="M505 176h-252l-54 -129l-50 20l46 109h-144v60h166l55 123h-221v61h242l54 126l49 -20l-45 -106h154v-61h-175l-55 -123h230v-60z" />
    <glyph glyph-name="lessequal" unicode="&#x2264;" horiz-adv-x="546" 
d="M487 137l-424 189v47l424 191v-74l-326 -141l326 -141v-71zM492 19h-433v61h433v-61z" />
    <glyph glyph-name="greaterequal" unicode="&#x2265;" horiz-adv-x="546" 
d="M487 326l-424 -189v71l327 141l-327 141v74l424 -191v-47zM492 19h-433v61h433v-61z" />
    <glyph glyph-name="dotmath" unicode="&#x22c5;" horiz-adv-x="574" 
d="M327 260h-81v132h81v-132z" />
    <glyph glyph-name="lozenge" unicode="&#x25ca;" horiz-adv-x="574" 
d="M517 369l-203 -411h-57l-200 411l202 413h57zM448 369l-162 340l-160 -339l161 -340z" />
    <glyph glyph-name="uni2713" unicode="&#x2713;" horiz-adv-x="616" 
d="M568 689l60 -25l-350 -702h-107l-135 319l87 37l118 -276z" />
    <glyph glyph-name="uniFB01" unicode="&#xfb01;" horiz-adv-x="708" 
d="M68 0v667h362v-69h-292v-225h257v-69h-257v-304h-70zM620 69h63v-69h-200v69h67v529h-67v69h200v-69h-63v-529z" />
    <glyph glyph-name="uniFB02" unicode="&#xfb02;" horiz-adv-x="924" 
d="M68 0v667h362v-69h-292v-225h257v-69h-257v-304h-70zM575 69h260v139h69v-208h-399v667h70v-598z" />
    <glyph glyph-name="uniFEFF" unicode="&#xfeff;" horiz-adv-x="0" 
 />
    <glyph glyph-name="zero.aalt" horiz-adv-x="540" 
d="M498 212q0 -45 -17.5 -87t-49 -73.5t-73.5 -49.5t-88 -18t-88 18t-73.5 49.5t-49 73.5t-17.5 87v243q0 45 17.5 87t49 73.5t73.5 49.5t88 18q34 0 67 -10t60.5 -29t52 -49t36.5 -68t12 -72v-243zM428 211v245q0 23 -8 49.5t-30.5 54t-55 41.5t-64.5 14t-57.5 -11
t-46 -28.5t-37.5 -49t-17 -70.5v-245q0 -23 8 -49.5t30.5 -54t55 -41.5t64.5 -14t57.5 11t46 28.5t37.5 49t17 70.5z" />
    <glyph glyph-name="one.aalt" horiz-adv-x="540" 
d="M114 0v66h127v531h-103v70h173v-601h129v-66h-326z" />
    <glyph glyph-name="two.aalt" horiz-adv-x="540" 
d="M24 0v59l273 228q79 65 102.5 105t23.5 73q0 28 -11 55t-32.5 48.5t-53 34t-70.5 12.5q-40 0 -85 -19t-99 -75l-46 56q49 46 110 76t127 30q44 0 86 -14.5t75 -42.5t52.5 -68t19.5 -87t-23 -90.5t-56.5 -77t-64.5 -59.5l-210 -174h373v-70h-491z" />
    <glyph glyph-name="three.aalt" horiz-adv-x="540" 
d="M17 93l54 55q45 -51 94 -73.5t106 -22.5q50 0 90.5 24t62.5 62t22 88q0 65 -46 106.5t-114 41.5q-53 0 -93 -34l-48 43l214 214h-309v70h424v-51l-178 -178q104 0 165 -56.5t61 -155.5q0 -51 -20 -95.5t-54.5 -77.5t-80.5 -51t-96 -18q-71 0 -130 21.5t-124 87.5z" />
    <glyph glyph-name="four.aalt" horiz-adv-x="540" 
d="M363 0v165h-347v55l349 452h68v-440h91v-67h-91v-165h-70zM363 232v333l-257 -333h257z" />
    <glyph glyph-name="five.aalt" horiz-adv-x="540" 
d="M137 429q1 0 38.5 3t66.5 4.5t45 1.5q35 0 73 -10t76 -39t57.5 -74t19.5 -93q0 -51 -18 -95t-51 -76t-80 -49.5t-102 -17.5q-70 0 -129 27t-107 96l66 42q57 -95 170 -95q78 0 126.5 45.5t48.5 122.5q0 40 -21 73.5t-59 55t-80 21.5q-39 0 -83.5 -3t-82 -6.5t-44.5 -3.5
v308h398v-67h-328v-171z" />
    <glyph glyph-name="six.aalt" horiz-adv-x="540" 
d="M183 437q19 10 45 17t48 7q50 0 94 -18t77 -50.5t51 -76.5t18 -93q0 -44 -18.5 -87.5t-52.5 -77.5t-79.5 -54t-96.5 -20q-46 0 -91 18t-80 51t-55 77.5t-20 93.5q0 39 13.5 83t57.5 119q38 65 97 156t79 114l56 -34q-13 -17 -72.5 -110.5t-70.5 -114.5zM94 225
q0 -26 9 -55t31 -55t56.5 -44.5t78.5 -18.5q43 0 85.5 22.5t66 63.5t23.5 84q0 26 -9.5 54.5t-31 54.5t-56.5 44.5t-78 18.5q-34 0 -74 -17t-70.5 -59.5t-30.5 -92.5z" />
    <glyph glyph-name="seven.aalt" horiz-adv-x="540" 
d="M176 -7l253 607h-329v-130h-72v197h504l-274 -674h-82z" />
    <glyph glyph-name="eight.aalt" horiz-adv-x="540" 
d="M392 364q21 -5 50.5 -23.5t52 -58t22.5 -93.5q0 -33 -12 -68t-45 -69t-84.5 -51t-105.5 -17q-55 0 -101 14.5t-78.5 41.5t-50 65.5t-17.5 83.5q0 47 16.5 81.5t45.5 58.5t62 34q-26 10 -48 33.5t-31 51.5t-9 52q0 82 57 132.5t154 50.5q100 0 155.5 -51t55.5 -132
q0 -25 -9.5 -53.5t-32 -50.5t-47.5 -32zM270 330q-78 0 -126 -39t-48 -102q0 -62 49.5 -101.5t124.5 -39.5t124.5 39.5t49.5 101.5q0 63 -48 102t-126 39zM267 619q-32 0 -64 -10.5t-52 -38.5t-20 -63q0 -48 33.5 -79.5t102.5 -31.5q52 0 85 17.5t44.5 44t11.5 49.5
q0 35 -22 63t-54.5 38.5t-64.5 10.5z" />
    <glyph glyph-name="nine.aalt" horiz-adv-x="540" 
d="M356 230q-19 -10 -45 -17t-48 -7q-50 0 -94 18t-77 50.5t-51 76.5t-18 93q0 44 18.5 87.5t52.5 77.5t79.5 54t96.5 20q46 0 91 -18t80 -51t55 -77.5t20 -93.5q0 -40 -13.5 -85t-56.5 -118q-35 -60 -100.5 -155.5t-86.5 -119.5l-56 34q18 19 80.5 112.5t72.5 118.5z
M445 442q0 26 -9 55t-31 55t-56.5 44.5t-78.5 18.5q-43 0 -85.5 -22.5t-66 -63.5t-23.5 -84q0 -26 9.5 -54.5t31 -54.5t56.5 -44.5t78 -18.5q34 0 66 12.5t56.5 35.5t38.5 54.5t14 66.5z" />
    <glyph glyph-name="uni2007.aalt" horiz-adv-x="540" 
 />
    <glyph glyph-name="gravecomb.aalt" 
d="M-312 766v-70l-201 51v70z" />
    <glyph glyph-name="acutecomb.aalt" 
d="M-467 702v70l201 51v-70z" />
    <glyph glyph-name="uni0302.aalt" 
d="M-392 833l157 -87l-32 -48l-125 67l-125 -67l-32 48z" />
    <glyph glyph-name="tildecomb.aalt" 
d="M-459 814q27 -9 72 -30q42 -20 68 -29q14 0 22 11t8 30h57q0 -46 -26.5 -74.5t-67.5 -28.5q-27 9 -72 30q-48 22 -68 29q-14 0 -22 -11t-8 -30h-57q0 46 26.5 74.5t67.5 28.5z" />
    <glyph glyph-name="uni0308.aalt" 
d="M-317 681q0 20 15 34t34 14q21 0 35 -14t14 -34t-14 -34t-35 -14q-20 0 -34.5 14t-14.5 34zM-115 681q0 20 14 34t33 14q21 0 35.5 -14t14.5 -34t-13.5 -34t-34.5 -14q-20 0 -34.5 14t-14.5 34z" />
    <glyph glyph-name="uni030A.aalt" 
d="M-280 699q0 21 11 46.5t39 44.5t60 19q21 0 46.5 -11t44.5 -39t19 -60q0 -20 -11 -46t-39 -45t-60 -19t-60 19t-39 45t-11 46zM-170 752q-21 0 -37 -16t-16 -37t16 -37t37 -16t38 16t17 37t-16.5 37t-38.5 16z" />
    <glyph glyph-name="uni030C.aalt" 
d="M-290 676l-157 87l32 48l125 -67l125 67l32 -48z" />
    <glyph glyph-name="uni0327.aalt" 
d="M-203 -40v63h61v-51l100 -93q-1 -36 -22 -66t-49.5 -41.5t-51.5 -11.5q-36 0 -67 21t-43.5 49.5t-12.5 51.5h58q0 -16 7.5 -32.5t24 -25.5t33.5 -9q19 0 37.5 10.5t28.5 38.5z" />
    <glyph glyph-name="bullet.aalt" horiz-adv-x="916" 
d="M458 764l425 -236v-494l-425 -231l-425 231v494zM844 506l-386 214l-386 -214v-450l386 -210l386 210v450zM509 11l-117 -73v699l117 -65v-245l-52 -29l52 -28v-259zM646 496l91 -42v-382l-175 102v100l84 -48v270zM266 76l-91 42v382l175 -102v-100l-84 48v-270zM432 12
l40 26v206l-40 23v-255zM432 326l40 26v196l-40 23v-245z" />
    </font>
</defs>
</svg>
